<?xml version="1.0" encoding="utf-8"?>
<!-- Generator: Adobe Illustrator 23.0.0, SVG Export Plug-In . SVG Version: 6.00 Build 0)  -->
<svg version="1.2" baseProfile="tiny" id="Слой_1"
	 xmlns="http://www.w3.org/2000/svg" xmlns:xlink="http://www.w3.org/1999/xlink" x="0px" y="0px" viewBox="0 0 20 20"
	 xml:space="preserve">
<g id="Слой_x0020_1">
	<path fill-rule="evenodd" fill="#2B2A29" d="M18.2,12c-0.7-0.7-1.7-1.2-2.7-1.3l-0.2-0.1V2.2c0-1.2-0.9-2.1-2.1-2.1H2.7
		C1.5,0.1,0.5,1,0.5,2.2v13.9c0,1.2,0.9,2.1,2.1,2.1h8.5l0.1,0.1c0.9,1.1,2.2,1.7,3.6,1.7c2.6,0,4.7-2.1,4.7-4.7
		C19.6,14.1,19.1,12.9,18.2,12z M1.2,16.1V2.2c0-0.8,0.7-1.5,1.5-1.5h10.5c0.8,0,1.5,0.7,1.5,1.5v8.3h-0.3c-0.6,0.1-1.3,0.3-1.8,0.6
		l-0.1,0.1h-0.1c-0.1,0-0.1,0-0.1,0H3.3c-0.2,0-0.3,0.1-0.3,0.3c0,0.1,0.1,0.3,0.3,0.3h8.2l-0.3,0.4c-0.3,0.3-0.5,0.7-0.7,1.2
		l-0.1,0.1H3.3C3.1,13.7,3,13.8,3,14c0,0.2,0.1,0.3,0.3,0.3h6.9l-0.1,0.3c0,0.2-0.1,0.4-0.1,0.7c0,0.6,0.1,1.3,0.4,1.9l0.2,0.4H2.7
		C1.9,17.6,1.2,16.9,1.2,16.1z M14.9,19.3c-1.3,0-2.5-0.6-3.3-1.6c-0.5-0.7-0.8-1.5-0.8-2.4c0-2.3,1.8-4.1,4.1-4.1c0,0,0,0,0.1,0
		l0,0c1.1,0,2.1,0.5,2.8,1.2s1.1,1.8,1.1,2.9C18.9,17.5,17.1,19.3,14.9,19.3z M12.2,4H3.3C3.1,4,3,4.2,3,4.4c0,0.2,0.1,0.3,0.3,0.3
		h8.9c0.2,0,0.3-0.1,0.3-0.3C12.6,4.2,12.4,4,12.2,4z M12.2,8.8H3.3C3.1,8.8,3,9,3,9.2c0,0.1,0.1,0.3,0.3,0.3h8.9
		c0.2,0,0.3-0.2,0.3-0.3C12.6,9,12.4,8.8,12.2,8.8z M12.2,6.4H3.3C3.1,6.4,3,6.6,3,6.8s0.1,0.3,0.3,0.3h8.9c0.2,0,0.3-0.1,0.3-0.3
		S12.4,6.4,12.2,6.4z M16.8,13.9c-0.1-0.1-0.4-0.1-0.5,0.1L14.6,16l-1.1-0.8c-0.1-0.1-0.3-0.1-0.5,0.1c-0.1,0.1-0.1,0.3,0.1,0.5
		l1.4,1c0.1,0.1,0.1,0.1,0.2,0.1c0.1,0,0.2,0,0.3-0.1l1.9-2.3C16.9,14.2,16.9,14,16.8,13.9z"/>
</g>
</svg>
