<?xml version="1.0" encoding="utf-8"?>
<!-- Generator: Adobe Illustrator 23.0.0, SVG Export Plug-In . SVG Version: 6.00 Build 0)  -->
<svg version="1.2" baseProfile="tiny" id="Слой_1"
	 xmlns="http://www.w3.org/2000/svg" xmlns:xlink="http://www.w3.org/1999/xlink" x="0px" y="0px" viewBox="0 0 20 20"
	 xml:space="preserve">
<g id="Слой_x0020_1">
	<path fill-rule="evenodd" d="M9.5,4.3H11v12.4c2.9,0.1,5.4,1,7.2,2.4H2.4c1.7-1.4,4.2-2.3,7.1-2.4V4.3z M15.9,4.2l-2.7,5.4h5.7
		L15.9,4.2z M12.7,9.6l3.1-6l0.1-0.3l0.2,0.3l3.2,6c0.4,0.1,0.6,0.4,0.6,0.8l0,0c0,0.4-0.4,0.8-0.8,0.8h-6.4c-0.4,0-0.8-0.4-0.8-0.8
		l0,0C12,10.1,12.3,9.7,12.7,9.6z M4.3,6.2l-2.8,5.4h5.7L4.3,6.2z M1.1,11.7l3-6l0.2-0.4l0.1,0.4l3.3,6c0.4,0,0.6,0.4,0.6,0.7l0,0
		c0,0.4-0.4,0.8-0.8,0.8H1.2c-0.4,0-0.8-0.4-0.8-0.8l0,0C0.4,12.1,0.7,11.8,1.1,11.7z M0,3.8l9.4-1.4C9.5,2,9.7,1.7,10.2,1.7
		c0.4,0,0.6,0.2,0.7,0.5l8.8-1.3l0.2,1.5L0.2,5.3L0,3.8z"/>
</g>
</svg>
