<?xml version="1.0" encoding="utf-8"?>
<!-- Generator: Adobe Illustrator 23.0.0, SVG Export Plug-In . SVG Version: 6.00 Build 0)  -->
<svg version="1.2" baseProfile="tiny" id="Слой_1"
	 xmlns="http://www.w3.org/2000/svg" xmlns:xlink="http://www.w3.org/1999/xlink" x="0px" y="0px" viewBox="0 0 20 20"
	 xml:space="preserve">
<path fill-rule="evenodd" d="M19,6H1C0.4,6,0,5.5,0,5v0c0-0.6,0.4-1,1-1h18c0.6,0,1,0.4,1,1v0C20,5.5,19.6,6,19,6z"/>
<path fill-rule="evenodd" d="M19,11H1c-0.6,0-1-0.4-1-1v0c0-0.6,0.4-1,1-1h18c0.6,0,1,0.4,1,1v0C20,10.6,19.6,11,19,11z"/>
<path fill-rule="evenodd" d="M19,16H1c-0.6,0-1-0.4-1-1v0c0-0.6,0.4-1,1-1h18c0.6,0,1,0.4,1,1v0C20,15.6,19.6,16,19,16z"/>
</svg>
