<?xml version="1.0" encoding="utf-8"?>
<!-- Generator: Adobe Illustrator 23.0.0, SVG Export Plug-In . SVG Version: 6.00 Build 0)  -->
<svg version="1.2" baseProfile="tiny" id="Слой_1"
	 xmlns="http://www.w3.org/2000/svg" xmlns:xlink="http://www.w3.org/1999/xlink" x="0px" y="0px" viewBox="0 0 20 20"
	 xml:space="preserve">
<g id="Слой_x0020_1">
	<path fill-rule="evenodd" d="M1.3,2.3h17.3C19.4,2.3,20,3,20,3.8l0,0c0,0.8-0.6,1.5-1.3,1.5H1.3C0.6,5.3,0,4.6,0,3.8l0,0
		C0,3,0.6,2.3,1.3,2.3z M1.3,14.7h17.3c0.7,0,1.3,0.6,1.3,1.5l0,0c0,0.8-0.6,1.5-1.3,1.5H1.3C0.6,17.7,0,17,0,16.2l0,0
		C0,15.3,0.6,14.7,1.3,14.7z M1.3,8.5h17.3c0.7,0,1.3,0.7,1.3,1.5l0,0c0,0.8-0.6,1.5-1.3,1.5H1.3C0.6,11.5,0,10.8,0,10l0,0
		C0,9.2,0.6,8.5,1.3,8.5z"/>
</g>
</svg>
