<?xml version="1.0" encoding="utf-8"?>
<!-- Generator: Adobe Illustrator 23.0.0, SVG Export Plug-In . SVG Version: 6.00 Build 0)  -->
<svg version="1.2" baseProfile="tiny" id="Слой_1"
	 xmlns="http://www.w3.org/2000/svg" xmlns:xlink="http://www.w3.org/1999/xlink" x="0px" y="0px" viewBox="0 0 20 20"
	 xml:space="preserve">
<g id="Слой_x0020_1">
	<path fill-rule="evenodd" d="M14,2.3c1.6,0,3.1,0.6,4.2,1.8c1.1,1.1,1.7,2.6,1.7,4.2c0,1.6-0.6,3.1-1.7,4.2l-0.8,0.8
		c0,0-0.1,0-0.1,0.1c-0.1,0.1-0.2,0.3-0.4,0.4c-0.2,0.3-0.6,0.4-1,0.4h-0.1c0,0.4-0.1,0.8-0.4,1.1c-0.3,0.2-0.6,0.4-1,0.4
		c-0.1,0-0.1,0-0.1,0c0,0.4-0.1,0.8-0.4,1.1c-0.3,0.3-0.6,0.4-1.1,0.4c0,0,0,0-0.1,0c0.1,0.4-0.1,0.8-0.4,1.1
		c-0.2,0.3-0.6,0.4-1,0.4c-0.4,0-0.8-0.1-1.1-0.4l-0.7-0.7l-0.5,0.6c-0.3,0.3-0.6,0.4-1.1,0.4c-0.4,0-0.8-0.1-1-0.4
		c-0.4-0.3-0.5-0.7-0.4-1.1c-0.1,0-0.1,0-0.1,0c-0.4,0-0.8-0.1-1.1-0.4c-0.3-0.2-0.4-0.6-0.4-1v-0.1c0,0,0,0-0.1,0
		c-0.4,0-0.7-0.1-1-0.4s-0.4-0.6-0.4-1c0-0.1,0-0.1,0-0.1H3.4c-0.4,0-0.7-0.1-1-0.4S2,13.1,2,12.8c-0.1,0-0.1-0.1-0.1-0.1l-0.1-0.1
		C0.6,11.4,0,9.9,0,8.3c0-1.6,0.6-3.2,1.8-4.2C2.9,3,4.4,2.3,6,2.3c1.4,0,2.9,0.5,3.9,1.5C11.1,2.8,12.5,2.3,14,2.3z M19.2,8.3
		c0-1.4-0.6-2.7-1.6-3.7c-0.4-0.4-0.7-0.6-1.1-0.9c-2-1.1-4.6-0.8-6.2,0.9L7.6,7.3c-0.4,0.4-0.4,0.9,0,1.2c0.4,0.4,0.9,0.4,1.2,0
		L10,7.4c0.1-0.1,0.1-0.1,0.3-0.1h1.5c0.5,0,1-0.1,1.4-0.5L14,6c0.1-0.1,0.4-0.1,0.5,0c0.1,0.1,0.1,0.4,0,0.6l-0.7,0.7
		c-0.2,0.2-0.5,0.4-0.7,0.5l3.9,4c0.2,0.1,0.3,0.4,0.4,0.5l0.3-0.3C18.6,11,19.1,9.7,19.2,8.3z M3.4,13.4c-0.1,0-0.4-0.1-0.5-0.2
		c-0.1-0.1-0.1-0.3-0.1-0.5c0-0.1,0.1-0.4,0.1-0.4l0.7-0.7c0.1-0.1,0.3-0.2,0.5-0.2c0.1,0,0.4,0.1,0.4,0.2c0.3,0.3,0.3,0.7,0,1
		l-0.6,0.6C3.8,13.3,3.7,13.4,3.4,13.4z M4.5,14.6c-0.1-0.1-0.2-0.3-0.2-0.4c0-0.2,0.1-0.4,0.2-0.5L5.2,13l0,0
		c0.1-0.1,0.3-0.1,0.5-0.1c0.1,0,0.4,0.1,0.5,0.1c0.2,0.3,0.2,0.7,0,1l-0.7,0.6C5.2,14.9,4.7,14.9,4.5,14.6z M6,16.2
		c-0.1-0.1-0.2-0.3-0.2-0.5c0-0.2,0.1-0.4,0.2-0.5l0.6-0.6l0,0c0.1-0.1,0.4-0.2,0.5-0.2c0.2,0,0.4,0.1,0.5,0.2
		c0.3,0.3,0.3,0.7,0,0.9L7,16.2C6.7,16.4,6.3,16.4,6,16.2z M9.2,17.1l-0.6,0.6c-0.1,0.1-0.3,0.2-0.5,0.2c-0.2,0-0.4-0.1-0.5-0.2
		c-0.2-0.3-0.2-0.7,0-1l0.7-0.6l0,0c0.1-0.1,0.3-0.2,0.4-0.2c0.2,0,0.4,0.1,0.5,0.2c0.1,0.1,0.2,0.3,0.2,0.5
		C9.4,16.7,9.3,16.9,9.2,17.1z M16.5,13.4c-0.1,0.1-0.3,0.1-0.5,0.1c-0.2,0-0.4-0.1-0.5-0.1l-1.6-1.6c-0.6-0.5-1.1-1-1.6-1.5
		c-0.1-0.1-0.4-0.1-0.5,0c-0.2,0.1-0.2,0.4,0,0.5l3.1,3.2c0.3,0.3,0.3,0.7,0,1c-0.1,0.1-0.3,0.2-0.4,0.2c-0.2,0-0.4-0.1-0.5-0.2
		l-3.2-3.2c-0.1-0.1-0.4-0.1-0.6,0c-0.1,0.1-0.1,0.4,0,0.6l1.6,1.5c0.5,0.6,1.1,1.1,1.6,1.6c0.3,0.2,0.3,0.6,0,0.9
		c-0.3,0.3-0.7,0.3-0.9,0c-0.8-0.7-1.5-1.4-2.2-2.1c-0.1-0.1-0.4-0.1-0.6,0c-0.1,0.1-0.1,0.4,0,0.6l2.2,2.1c0.2,0.3,0.2,0.7,0,1
		c-0.1,0.1-0.4,0.2-0.5,0.2c-0.2,0-0.4-0.1-0.5-0.2l-0.8-0.9c0-0.1,0.1-0.4,0.1-0.5c0-0.4-0.1-0.8-0.4-1.1c-0.3-0.3-0.6-0.4-1.1-0.4
		l0,0c0-0.4-0.1-0.8-0.4-1.1c-0.3-0.3-0.6-0.4-1.1-0.4c0,0,0,0-0.1,0c0.1-0.4-0.1-0.8-0.4-1.1c-0.3-0.3-0.6-0.4-1-0.4H5.6
		c0-0.4-0.1-0.8-0.4-1.1c-0.6-0.6-1.5-0.6-2.1,0l-0.6,0.7c-0.1,0.1-0.1,0.1-0.2,0.3c-0.9-1-1.4-2.3-1.4-3.6c0-1.4,0.5-2.7,1.5-3.7
		S4.6,3.1,6,3.1c1.2,0,2.4,0.4,3.4,1.3L7,6.8C6.7,7.1,6.5,7.5,6.5,8c0,0.4,0.2,0.9,0.5,1.1c0.4,0.4,0.8,0.5,1.2,0.5
		c0.4,0,0.9-0.1,1.1-0.5l1.1-1.1h1.4c0.1,0,0.2,0,0.4,0l4.3,4.3C16.8,12.6,16.8,13.1,16.5,13.4z"/>
</g>
</svg>
