<?xml version="1.0" encoding="utf-8"?>
<!-- Generator: Adobe Illustrator 23.0.0, SVG Export Plug-In . SVG Version: 6.00 Build 0)  -->
<svg version="1.2" baseProfile="tiny" id="Слой_1"
	 xmlns="http://www.w3.org/2000/svg" xmlns:xlink="http://www.w3.org/1999/xlink" x="0px" y="0px" viewBox="0 0 20 20"
	 xml:space="preserve">
<g id="Слой_x0020_1">
	<path fill-rule="evenodd" fill="#2B2A29" d="M0.2,9.7C0.2,9.7,0.2,9.7,0.2,9.7L0.2,9.7L0.2,9.7C0.2,9.7,0.2,9.7,0.2,9.8l0,0l0,0
		c0,0-0.1,0-0.1,0.1l0,0l0,0c0,0,0,0,0,0.1l0,0l0,0c0,0.1,0,0.1,0,0.1v0.1l0,0v0.1l0,0v0.1c0,0,0,0,0.1,0l0,0v0.1l0,0l0,0
		c0,0,0,0.1,0,0c0,0.1,0.1,0.1,0.1,0.1l0,0c0,0,0,0,0,0.1L3,13.3c0.1,0.1,0.3,0.1,0.4,0.1c0.1,0,0.3-0.1,0.4-0.1
		c0.2-0.2,0.2-0.6,0-0.8L2,10.6h11.8c0.3,0,0.6-0.3,0.6-0.6c0-0.3-0.3-0.6-0.6-0.6H2l1.8-1.8c0.2-0.2,0.2-0.6,0-0.8S3.3,6.6,3,6.9
		L0.2,9.7L0.2,9.7L0.2,9.7L0.2,9.7z M12.6,2.7C10.3,2.7,7.9,4,6.6,6C6.4,6.2,6.5,6.6,6.8,6.8C7,6.9,7.4,6.9,7.5,6.6
		c1.2-1.7,3.1-2.7,5.1-2.7c3.5,0,6.2,2.7,6.2,6.1s-2.7,6.2-6.2,6.2c-2,0-4-1-5.1-2.7c-0.1-0.3-0.5-0.4-0.7-0.1
		c-0.3,0.1-0.4,0.5-0.1,0.8c1.3,2,3.6,3.2,6,3.2c4,0,7.4-3.2,7.4-7.3S16.7,2.7,12.6,2.7z"/>
</g>
</svg>
