<?xml version="1.0" encoding="utf-8"?>
<!-- Generator: Adobe Illustrator 23.0.0, SVG Export Plug-In . SVG Version: 6.00 Build 0)  -->
<svg version="1.2" baseProfile="tiny" id="Слой_1"
	 xmlns="http://www.w3.org/2000/svg" xmlns:xlink="http://www.w3.org/1999/xlink" x="0px" y="0px" viewBox="0 0 20 20"
	 xml:space="preserve">
<g id="Слой_x0020_1">
	<path fill-rule="evenodd" d="M18.2,2.4H1.9C1,2.4,0.2,3.2,0.2,4.2v11.6c0,1,0.8,1.8,1.7,1.8h16.3c0.9,0,1.7-0.8,1.7-1.8V4.2
		C20,3.2,19.2,2.4,18.2,2.4z M18,3.6l-7.9,7.9l-8-7.9H18z M1.3,15.6V4.4L6.9,10L1.3,15.6z M2.2,16.3l5.6-5.6l1.9,1.9
		c0.2,0.3,0.6,0.3,0.8,0l1.9-1.9l5.6,5.5H2.2z M18.8,15.6L13.3,10l5.5-5.5V15.6z"/>
</g>
</svg>
