<?xml version="1.0" encoding="utf-8"?>
<!-- Generator: Adobe Illustrator 23.0.0, SVG Export Plug-In . SVG Version: 6.00 Build 0)  -->
<svg version="1.2" baseProfile="tiny" id="Слой_1"
	 xmlns="http://www.w3.org/2000/svg" xmlns:xlink="http://www.w3.org/1999/xlink" x="0px" y="0px" viewBox="0 0 20 20"
	 xml:space="preserve">
<polygon points="17.3,3.6 2.8,3.6 10.1,10.9 "/>
<polygon points="2,4.4 2,14.6 7.1,9.5 "/>
<polygon points="18,14.6 18,4.4 13,9.5 "/>
<path d="M10.4,12c-0.1,0.1-0.2,0.2-0.4,0.2c-0.1,0-0.3-0.1-0.4-0.2l-1.8-1.8l-5.1,5.1h14.6l-5.1-5.1L10.4,12z"/>
<path d="M17.5,1.7h-15C1.1,1.7,0,2.8,0,4.2v10.7c0,1.4,1.1,2.6,2.5,2.6h15c1.4,0,2.5-1.1,2.5-2.6V4.2C20,2.8,18.9,1.7,17.5,1.7z
	 M19.1,14.8c0,0.9-0.7,1.6-1.6,1.6h-15c-0.9,0-1.6-0.7-1.6-1.6V4.2c0-0.9,0.7-1.6,1.6-1.6h15c0.9,0,1.6,0.7,1.6,1.6V14.8z"/>
</svg>
