<?xml version="1.0" encoding="utf-8"?>
<!-- Generator: Adobe Illustrator 23.0.0, SVG Export Plug-In . SVG Version: 6.00 Build 0)  -->
<svg version="1.2" baseProfile="tiny" id="Слой_1"
	 xmlns="http://www.w3.org/2000/svg" xmlns:xlink="http://www.w3.org/1999/xlink" x="0px" y="0px" viewBox="0 0 20 20"
	 xml:space="preserve">
<g id="Слой_x0020_1">
	<path fill-rule="evenodd" d="M19,18.5c0.5-0.5,0.6-1,0.6-1.7c0-0.5-0.2-1.2-0.6-1.7l-2.5-2.5c-0.5-0.5-0.9-0.7-1.6-0.7
		s-1.3,0.1-1.7,0.7c-0.4,0.6-0.1,1.5-0.9,1.5c-0.8,0-0.9-0.1-1-0.2c-0.2-0.1-0.5-0.3-0.5-0.3L7,10.2c0,0-1.6-1.4-1.3-2.2
		C5.9,7.1,6.4,7.5,7,7.2c0.1-0.1,0.3-0.4,0.4-0.4c1-0.9,1-2.3,0-3.2L6.1,2.3C6,2.1,5.9,2,5.7,1.8C5.5,1.5,5.1,1.3,4.9,1
		C4.4,0.4,3.9,0.2,3.3,0.2S2.1,0.4,1.6,1l0,0L1.4,1.2c-0.5,0.5-0.9,1.4-1,2.2C0.3,4.8,0.7,6.1,0.9,6.9c0.7,2,1.9,3.9,3.7,6
		c2,2.4,4.5,4.3,7.2,5.8c1,0.5,2.5,1,4.1,1.2c0.1,0,0.2,0,0.3,0C17.2,19.8,18.2,19.4,19,18.5L19,18.5"/>
</g>
</svg>
