<?xml version="1.0" encoding="utf-8"?>
<!-- Generator: Adobe Illustrator 23.0.0, SVG Export Plug-In . SVG Version: 6.00 Build 0)  -->
<svg version="1.2" baseProfile="tiny" id="Слой_1"
	 xmlns="http://www.w3.org/2000/svg" xmlns:xlink="http://www.w3.org/1999/xlink" x="0px" y="0px" viewBox="0 0 20 20"
	 xml:space="preserve">
<g id="Слой_x0020_1">
	<path fill-rule="evenodd" fill="#2B2A29" d="M15.8,5.7c0-3.2-2.5-5.7-5.6-5.7C7,0,4.5,2.5,4.5,5.7c0,1.9,1,3.6,2.5,4.7
		c-1.4,0.5-2.7,1.2-3.8,2.3c-1.9,1.9-2.9,4.3-2.9,7h1.5c0-4.6,3.7-8.3,8.3-8.3C13.3,11.4,15.8,8.9,15.8,5.7L15.8,5.7z M11.7,18.5
		c-0.4,0-0.7,0.3-0.7,0.7s0.3,0.7,0.7,0.7h3.7c0.4,0,0.7-0.3,0.7-0.7s-0.3-0.7-0.7-0.7H11.7z M18.9,12.9h-7.3
		c-0.4,0-0.7,0.3-0.7,0.7c0,0.4,0.3,0.7,0.7,0.7h7.3c0.4,0,0.7-0.3,0.7-0.7C19.6,13.2,19.3,12.9,18.9,12.9L18.9,12.9z M19.6,16.5
		c0-0.5-0.3-0.8-0.7-0.8h-7.3c-0.4,0-0.7,0.3-0.7,0.8c0,0.4,0.3,0.7,0.7,0.7h7.3C19.3,17.2,19.6,16.8,19.6,16.5z M10.2,9.9
		C7.9,9.9,6,8,6,5.7s1.9-4.2,4.2-4.2c2.2,0,4.2,1.9,4.2,4.2S12.4,9.9,10.2,9.9z"/>
</g>
</svg>
