<?xml version="1.0" encoding="utf-8"?>
<!-- Generator: Adobe Illustrator 23.0.0, SVG Export Plug-In . SVG Version: 6.00 Build 0)  -->
<svg version="1.2" baseProfile="tiny" id="Слой_1"
	 xmlns="http://www.w3.org/2000/svg" xmlns:xlink="http://www.w3.org/1999/xlink" x="0px" y="0px" viewBox="0 0 20 20"
	 xml:space="preserve">
<g id="Слой_x0020_1">
	<path fill-rule="evenodd" d="M10,0c2.7,0,5.2,1.1,7,2.9S20,7.2,20,10c0,2.7-1.1,5.2-2.9,7S12.8,20,10,20c-2.8,0-5.3-1.1-7.1-2.9
		S0,12.8,0,10c0-2.8,1.1-5.3,2.9-7.1S7.2,0,10,0z M14.5,13c-0.6-0.6-1.5-1.1-2.4-1.5c0.9-0.6,1.6-1.7,1.6-3c0-2-1.6-3.7-3.7-3.7
		C8,4.9,6.3,6.5,6.3,8.5c0,1.3,0.6,2.4,1.6,3C7,11.9,6.2,12.4,5.5,13C4.6,14,4,15.2,3.7,16.4c0,0,0-0.1-0.1-0.1
		c-1.6-1.6-2.6-3.9-2.6-6.3c0-2.5,1-4.7,2.6-6.4C5.3,2.1,7.5,1.1,10,1.1c2.4,0,4.7,1,6.3,2.6C18,5.3,19,7.5,19,10
		c0,2.4-1,4.7-2.7,6.3l-0.1,0.1C16.1,15.2,15.4,14,14.5,13z M4.7,17.2c0.2-2.8,2.5-5,5.4-5c2.8,0,5.1,2.2,5.3,5
		C13.8,18.3,12,19,10,19S6.2,18.3,4.7,17.2z M10,11.3c-1.5,0-2.7-1.2-2.7-2.7S8.5,5.9,10,5.9c1.4,0,2.7,1.1,2.7,2.7
		S11.5,11.3,10,11.3z"/>
</g>
</svg>
