<?xml version="1.0" encoding="utf-8"?>
<!-- Generator: Adobe Illustrator 23.0.0, SVG Export Plug-In . SVG Version: 6.00 Build 0)  -->
<svg version="1.2" baseProfile="tiny" id="Слой_1"
	 xmlns="http://www.w3.org/2000/svg" xmlns:xlink="http://www.w3.org/1999/xlink" x="0px" y="0px" viewBox="0 0 20 20"
	 xml:space="preserve">
<g id="Слой_x0020_1">
	<path fill-rule="evenodd" fill="#2B2A29" d="M15.7,5.8C15.7,2.6,13.2,0,10,0S4.2,2.6,4.2,5.8c0,2,1,3.7,2.5,4.7
		C5.3,11,4,11.8,2.9,12.9C1.1,14.8,0,17.3,0,20h1.6c0-4.6,3.7-8.4,8.4-8.4C13.2,11.6,15.7,9,15.7,5.8L15.7,5.8z M10,10
		c-2.3,0-4.2-1.9-4.2-4.2c0-2.4,1.9-4.2,4.2-4.2c2.4,0,4.3,1.8,4.3,4.2C14.2,8.1,12.3,10,10,10z M20,14.4L16.3,18L15.2,17l1.8-1.9
		h-1.4c-1.8,0-3.3,1.5-3.3,3.4V20h-1.6v-1.5c0-2.7,2.2-4.9,4.9-4.9H17l-1.7-1.7l1.1-1.1L20,14.4z"/>
</g>
</svg>
