<svg viewBox="0 0 512 512">
  <defs/>
  <path d="M488.468 188.384H373.643L292.925 32.747c-2.894-5.58-7.787-9.699-13.779-11.599-5.993-1.9-12.365-1.352-17.945 1.542-1.94 1.006-3.676 2.25-5.201 3.673-1.526-1.422-3.262-2.667-5.202-3.673-5.579-2.894-11.953-3.441-17.945-1.542-5.992 1.899-10.885 6.019-13.779 11.599l-85.082 164.052c-2.894 5.58-3.442 11.953-1.542 17.945.648 2.045 1.574 3.951 2.71 5.704H23.532c-4.705 0-8.532-3.827-8.532-8.532 0-4.704 3.828-8.532 8.532-8.532h85.505c4.142 0 7.5-3.357 7.5-7.5 0-4.142-3.358-7.5-7.5-7.5H23.532C10.557 188.384 0 198.941 0 211.916c0 10.761 7.262 19.851 17.141 22.643l43.439 231.67c2.795 14.912 15.836 25.735 31.008 25.735h328.825c15.172 0 28.212-10.823 31.008-25.735l43.439-231.671c9.878-2.791 17.14-11.881 17.14-22.642 0-12.976-10.557-23.532-23.532-23.532zM268.107 36.007c2.023-1.049 4.334-1.248 6.506-.559 2.172.688 3.947 2.182 4.996 4.205l85.082 164.053c1.049 2.023 1.248 4.334.559 6.506-.688 2.173-2.182 3.947-4.206 4.996-2.022 1.05-4.333 1.248-6.506.56s-3.947-2.182-4.996-4.205L264.461 47.509c-2.166-4.176-.53-9.336 3.646-11.502zm99.872 199.442l-7.097 73.178H263.5v-73.178h104.479zM256 63.775l80.228 154.692c.354.684.74 1.344 1.153 1.981H174.619c.413-.637.799-1.297 1.153-1.98l7.823-15.083H297.75c4.142 0 7.5-3.357 7.5-7.5 0-4.142-3.358-7.5-7.5-7.5H191.374L256 63.775zm-108.692 139.93l85.083-164.053c1.049-2.023 2.823-3.517 4.996-4.205.85-.27 1.721-.403 2.588-.403 1.349 0 2.687.324 3.918.962 4.176 2.167 5.812 7.326 3.646 11.502l-85.083 164.053c-1.049 2.023-2.823 3.517-4.996 4.205-2.171.688-4.482.49-6.506-.56-2.023-1.049-3.517-2.823-4.205-4.996-.689-2.171-.49-4.481.559-6.505zM32.569 235.449h96.382l7.097 73.178H46.29l-13.721-73.178zm16.534 88.177h88.4l7.097 73.177H62.823l-13.72-73.177zm42.484 153.339c-7.958 0-14.798-5.677-16.264-13.499l-9.687-51.663h80.418l6.32 65.162H91.587zm156.913 0h-81.057l-6.319-65.162H248.5v65.162zm0-80.162h-88.831l-7.097-73.177H248.5v73.177zm0-88.176h-97.382l-7.097-73.178H248.5v73.178zm96.057 168.338H263.5v-65.162h87.376l-6.319 65.162zm7.774-80.161H263.5v-73.177h95.928l-7.097 73.177zm84.346 66.662c-1.466 7.822-8.307 13.499-16.265 13.499h-60.786l6.32-65.162h80.418l-9.687 51.663zm12.5-66.662h-81.776l7.097-73.177h88.4l-13.721 73.177zm16.533-88.178h-89.757l7.097-73.178h96.381l-13.721 73.178zm22.758-88.177H376.84c1.136-1.753 2.061-3.659 2.71-5.704 1.183-3.733 1.416-7.615.724-11.36h108.194c4.705 0 8.532 3.828 8.532 8.532 0 4.704-3.828 8.532-8.532 8.532z"/>
</svg>
