<?xml version="1.0" encoding="utf-8"?>
<!-- Generator: Adobe Illustrator 23.0.0, SVG Export Plug-In . SVG Version: 6.00 Build 0)  -->
<svg version="1.2" baseProfile="tiny" id="Слой_1"
	 xmlns="http://www.w3.org/2000/svg" xmlns:xlink="http://www.w3.org/1999/xlink" x="0px" y="0px" viewBox="0 0 20 20"
	 xml:space="preserve">
<g id="Слой_x0020_1">
	<path fill-rule="evenodd" fill="#2B2A29" d="M11.6,20v-9h3.1l0.5-3.6c-0.3,0-0.5,0-0.7,0c-0.9,0-2.8,0-2.8,0s0-1.8,0-2.6
		c0-1.1,0.6-1.4,1.5-1.4c0.6,0,1.3,0,1.9,0h0.3V0.1c-0.3,0-0.7-0.1-1-0.1c-0.6,0-1.3,0-1.9,0c-1,0-1.9,0.3-2.7,0.9
		C8.6,1.5,8.2,2.4,8,3.5C7.9,4,7.9,4.4,7.9,4.9c0,0.7,0,1.4,0,2.2v0.3H4.8V11h3.1V20H11.6z"/>
</g>
</svg>
