<?xml version="1.0" encoding="utf-8"?>
<!-- Generator: Adobe Illustrator 23.0.0, SVG Export Plug-In . SVG Version: 6.00 Build 0)  -->
<svg version="1.2" baseProfile="tiny" id="Слой_1"
	 xmlns="http://www.w3.org/2000/svg" xmlns:xlink="http://www.w3.org/1999/xlink" x="0px" y="0px" viewBox="0 0 20 20"
	 xml:space="preserve">
<g>
	<path fill="#2B2A29" d="M10,6.4C8,6.4,6.4,8,6.4,10S8,13.5,10,13.5s3.5-1.6,3.5-3.5S11.9,6.4,10,6.4z"/>
	<path fill="#2B2A29" d="M13.9,0H6.1C2.7,0,0,2.7,0,6.1v7.8C0,17.2,2.7,20,6.1,20h7.8c3.3,0,6.1-2.8,6.1-6.1V6.1
		C20,2.7,17.2,0,13.9,0z M10,15c-2.8,0-5.1-2.3-5.1-5.1c0-2.8,2.3-5.1,5.1-5.1s5.1,2.3,5.1,5.1C15,12.8,12.8,15,10,15z M15.6,5.6
		c-0.7,0-1.3-0.6-1.3-1.3S14.9,3,15.6,3c0.7,0,1.3,0.6,1.3,1.3S16.3,5.6,15.6,5.6z"/>
</g>
</svg>
