<?xml version="1.0" encoding="utf-8"?>
<!-- Generator: Adobe Illustrator 24.0.2, SVG Export Plug-In . SVG Version: 6.00 Build 0)  -->
<svg version="1.2" baseProfile="tiny" id="Слой_1"
	 xmlns="http://www.w3.org/2000/svg" xmlns:xlink="http://www.w3.org/1999/xlink" x="0px" y="0px" viewBox="0 0 55 45"
	 xml:space="preserve">
<g>
	<path fill-rule="evenodd" fill="#E00007" d="M94.2,21.9c0,0.9-0.1,1.6-0.2,2.2c-0.1,0.6-0.3,1-0.6,1.2h4v-4.7h-3.1L94.2,21.9z"/>
	<path fill-rule="evenodd" fill="#E00007" d="M88.8,20.8c-0.4-0.2-0.9-0.3-1.4-0.3c-0.5,0-1,0.1-1.4,0.3s-0.8,0.5-1,0.9
		c-0.2,0.4-0.4,0.8-0.4,1.2s0.1,0.9,0.4,1.2c0.2,0.4,0.6,0.7,1,0.9s0.9,0.3,1.4,0.3c0.5,0,1-0.1,1.4-0.3s0.7-0.5,1-0.9
		c0.2-0.4,0.4-0.8,0.4-1.2s-0.1-0.9-0.4-1.2C89.6,21.3,89.2,21.1,88.8,20.8z"/>
	<path fill-rule="evenodd" fill="#E00007" d="M79.7,20.6H78v2.8h1.7c0.6,0,1.1-0.1,1.5-0.4c0.3-0.2,0.5-0.6,0.5-1.1
		c0-0.5-0.2-0.8-0.5-1.1C80.8,20.7,80.3,20.6,79.7,20.6z"/>
	<path fill-rule="evenodd" fill="#E00007" d="M118.1,0.7H66.9c-1.1,0-1.9,0.8-1.9,1.6v31.1c0,1.1,0.8,1.9,1.9,1.9h51.1
		c1.1,0,1.9-0.8,1.9-1.9V2.4C120,1.6,119.2,0.7,118.1,0.7z M95.7,9h5.9v0.8h-2.4v5.5h-1V9.7h-2.4V9z M88.3,9h1v4.9L93.5,9h0.9v6.3
		h-1v-4.9l-4.2,4.9h-0.9V9z M81,9h1.2l1.9,2.3L85.9,9h1.2l-2.4,3l2.6,3.3h-1.2l-2-2.5l-2,2.5h-1.2l2.6-3.3L81,9z M74.8,26.1h-1v-5.5
		h-4.1v5.5h-1v-6.3h6.1V26.1z M81.9,23.6c-0.5,0.4-1.3,0.6-2.2,0.6H78v1.9h-1v-6.3h2.8c0.9,0,1.6,0.2,2.2,0.6
		c0.5,0.4,0.8,0.9,0.8,1.6C82.7,22.7,82.4,23.2,81.9,23.6z M90.7,24.6c-0.3,0.5-0.8,0.9-1.4,1.2c-0.6,0.3-1.2,0.4-1.9,0.4
		c-0.7,0-1.4-0.1-1.9-0.4c-0.6-0.3-1-0.7-1.4-1.2c-0.3-0.5-0.5-1-0.5-1.7s0.2-1.2,0.5-1.7c0.3-0.5,0.8-0.9,1.4-1.2
		c0.6-0.3,1.2-0.4,1.9-0.4c0.7,0,1.4,0.1,1.9,0.4c0.6,0.3,1,0.7,1.4,1.2c0.3,0.5,0.5,1,0.5,1.7S91,24.1,90.7,24.6z M99.4,27.5h-0.9
		v-1.4h-5.9l0,1.4h-0.9l0-2.2H92c0.4,0,0.8-0.3,0.9-0.9s0.3-1.5,0.3-2.6l0.1-2h5v5.5h1V27.5z M116.1,26.1l-2-2.8h-1.4v2.8h-1v-2.8
		h-1.4l-2,2.8h-1.2h0h-1l-0.8-1.6h-3.8l-0.8,1.6h-1l3.2-6.3h1l3.2,6.3l2.3-3.3l-2.2-3h1.1l1.9,2.7h1.4v-2.7h1v2.7h1.4l1.9-2.7h1.1
		l-2.2,3.1l2.3,3.3H116.1z"/>
	<polygon fill-rule="evenodd" fill="#E00007" points="102,23.8 105.1,23.8 103.6,20.7 	"/>
</g>
<g>
	<path fill-rule="evenodd" fill="#FF9933" d="M18.9,23.2v2.3H21c1.1,0,1.6-0.4,1.6-1.2c0-0.4-0.1-0.7-0.4-0.9
		c-0.3-0.2-0.7-0.3-1.2-0.3H18.9z"/>
	<path fill-rule="evenodd" fill="#FF9933" d="M20.8,20.2h-1.9v2.3h1.9c0.5,0,0.9-0.1,1.1-0.3c0.3-0.2,0.4-0.5,0.4-0.8
		c0-0.4-0.1-0.7-0.4-0.8C21.6,20.3,21.3,20.2,20.8,20.2z"/>
	<path fill-rule="evenodd" fill="#FF9933" d="M14,20.5c-0.4-0.2-0.9-0.3-1.4-0.3c-0.5,0-1,0.1-1.4,0.3s-0.7,0.6-1,1
		c-0.2,0.4-0.4,0.9-0.4,1.4c0,0.5,0.1,1,0.4,1.4c0.2,0.4,0.6,0.7,1,1s0.9,0.3,1.4,0.3c0.5,0,1-0.1,1.4-0.3c0.4-0.2,0.7-0.5,1-1
		c0.2-0.4,0.4-0.9,0.4-1.4c0-0.5-0.1-1-0.4-1.4C14.7,21.1,14.4,20.7,14,20.5z"/>
	<polygon fill-rule="evenodd" fill="#FF9933" points="50.9,20.4 49.5,23.8 52.4,23.8 	"/>
	<path fill-rule="evenodd" fill="#FF9933" d="M55,8.2V3c0-1.7-1.3-3-3-3H3C1.3,0,0,1.3,0,3v3.7v1.5v28.9v0.7V42c0,1.7,1.3,3,3,3h49
		c1.7,0,3-1.3,3-3v-4.9h0L55,8.2C55,8.2,55,8.2,55,8.2z M34.4,23.2v3.1h-1v-6.9h1v3h4v-3h1v6.9h-1v-3.1H34.4z M26.2,26.3h-0.9v-6.9
		h1v5.3l4.1-5.3h0.9v6.9h-1V21L26.2,26.3z M23.3,23.3c0.2,0.3,0.4,0.7,0.4,1.1c0,0.6-0.2,1.1-0.7,1.4c-0.4,0.3-1.1,0.5-1.9,0.5h-3.2
		v-6.9h3c0.8,0,1.4,0.2,1.8,0.5c0.4,0.3,0.6,0.7,0.6,1.3c0,0.4-0.1,0.7-0.3,1s-0.5,0.5-0.8,0.6C22.7,22.8,23,23,23.3,23.3z
		 M16.3,22.8c0,0.7-0.2,1.3-0.5,1.8c-0.3,0.5-0.8,1-1.3,1.3s-1.2,0.5-1.9,0.5c-0.7,0-1.3-0.2-1.9-0.5s-1-0.7-1.3-1.3
		c-0.3-0.5-0.5-1.1-0.5-1.8c0-0.7,0.2-1.3,0.5-1.8c0.3-0.5,0.8-1,1.3-1.3c0.6-0.3,1.2-0.5,1.9-0.5c0.7,0,1.3,0.2,1.9,0.5
		c0.6,0.3,1,0.7,1.3,1.3C16.1,21.6,16.3,22.2,16.3,22.8z M2.4,23.2v3.1h-1v-6.9h1v3h4v-3h1v6.9h-1v-3.1H2.4z M41.6,19.4h1v3H44
		l2.2-3h1.1l-2.5,3.4l2.6,3.5l3.1-6.9h1l3.2,6.9h-1l-0.8-1.7h-3.7l-0.8,1.7h-1h0h-1.1L44,23.3h-1.4v3.1h-1V19.4z"/>
</g>
</svg>
