<?xml version="1.0" encoding="utf-8"?>
<!-- Generator: Adobe Illustrator 24.0.2, SVG Export Plug-In . SVG Version: 6.00 Build 0)  -->
<svg version="1.2" baseProfile="tiny" id="Слой_1"
	 xmlns="http://www.w3.org/2000/svg" xmlns:xlink="http://www.w3.org/1999/xlink" x="0px" y="0px" viewBox="0 0 20 20"
	 xml:space="preserve">
<path id="Card_Shape" fill-rule="evenodd" fill="#E00007" d="M19.3,16.3H0.7C0.3,16.3,0,16,0,15.6V4.3C0,4,0.3,3.7,0.7,3.7h18.6
	C19.7,3.7,20,4,20,4.3v11.3C20,16,19.7,16.3,19.3,16.3z"/>
<g id="Слой_15">
	<polygon fill-rule="evenodd" fill="#FEFEFE" points="3.2,9.2 3.7,9.8 3.2,10.5 3.4,10.5 3.8,10 4.2,10.5 4.4,10.5 3.9,9.8 4.4,9.2 
		4.1,9.2 3.8,9.7 3.5,9.2 	"/>
</g>
<g id="Слой_14">
	<polygon fill-rule="evenodd" fill="#FEFEFE" points="4.6,10.5 4.8,10.5 5.5,9.5 5.5,10.5 5.7,10.5 5.7,9.2 5.5,9.2 4.8,10.2 
		4.8,9.2 4.6,9.2 	"/>
</g>
<g id="Слой_13">
	<polygon fill-rule="evenodd" fill="#FEFEFE" points="7,9.2 5.9,9.2 5.9,9.3 6.4,9.3 6.4,10.5 6.6,10.5 6.6,9.3 7,9.3 	"/>
</g>
<g id="Слой_12">
	<polygon fill-rule="evenodd" fill="#FEFEFE" points="7.8,9.2 7.8,10.5 8,10.5 8,9.3 8.7,9.3 8.7,10.5 8.9,10.5 8.9,9.2 	"/>
</g>
<g id="Слой_10">
</g>
<g id="Слой_11">
	<path fill-rule="evenodd" fill="#FEFEFE" d="M9.8,9.2H9.3v1.3h0.2v-0.4h0.3c0.3,0,0.6-0.2,0.6-0.5C10.4,9.4,10.2,9.2,9.8,9.2z
		 M9.8,9.9H9.5V9.3h0.3c0.2,0,0.4,0.1,0.4,0.3C10.2,9.8,10.1,9.9,9.8,9.9z"/>
</g>
<g id="Слой_9">
</g>
<g id="Слой_8">
	<path fill-rule="evenodd" fill="#FEFEFE" d="M11.2,9.2c-0.4,0-0.7,0.3-0.7,0.7c0,0.4,0.3,0.7,0.7,0.7c0.4,0,0.7-0.3,0.7-0.7
		C11.9,9.5,11.6,9.2,11.2,9.2z M11.2,10.4c-0.3,0-0.5-0.2-0.5-0.5c0-0.3,0.2-0.5,0.5-0.5c0.3,0,0.5,0.2,0.5,0.5
		C11.7,10.1,11.5,10.4,11.2,10.4z"/>
</g>
<g id="Слой_7">
</g>
<g id="Слой_6">
	<path fill-rule="evenodd" fill="#FEFEFE" d="M13.3,10.4V9.2h-0.9l0,0.4c0,0.4-0.1,0.7-0.2,0.7H12v0.4h0.2v-0.3h1.1v0.3h0.2v-0.4
		H13.3z M13.1,10.4h-0.7c0.1-0.1,0.1-0.4,0.2-0.7V9.3h0.6V10.4z"/>
</g>
<g id="Слой_5">
</g>
<g id="Слой_4">
	<path fill-rule="evenodd" fill="#FEFEFE" d="M14.3,9.2h-0.2l-0.6,1.3h0.2l0.1-0.3h0.7l0.1,0.3h0.2L14.3,9.2z M13.9,10l0.3-0.7
		l0.3,0.7H13.9z"/>
</g>
<g id="Слой_3">
	<polygon fill-rule="evenodd" fill="#FEFEFE" points="16.5,10.5 16.8,10.5 16.3,9.8 16.7,9.2 16.5,9.2 16.2,9.8 15.9,9.8 15.9,9.2 
		15.7,9.2 15.7,9.8 15.5,9.8 15.1,9.2 14.9,9.2 15.3,9.8 14.9,10.5 15.1,10.5 15.5,9.9 15.7,9.9 15.7,10.5 15.9,10.5 15.9,9.9 
		16.2,9.9 	"/>
</g>
</svg>
