<?xml version="1.0" encoding="utf-8"?>
<!-- Generator: Adobe Illustrator 24.0.2, SVG Export Plug-In . SVG Version: 6.00 Build 0)  -->
<svg version="1.2" baseProfile="tiny" id="Слой_1"
	 xmlns="http://www.w3.org/2000/svg" xmlns:xlink="http://www.w3.org/1999/xlink" x="0px" y="0px" viewBox="0 0 357 225.6"
	 xml:space="preserve">
<g id="layer">
	<path id="Card_Shape" fill-rule="evenodd" fill="#E00007" d="M345,225.6H12.1c-6.6,0-12-5.6-12-12.3V12c0-6.6,5.3-12,12-12H345
		c6.6,0,12,5.3,12,12v201.3C356.9,219.9,351.6,225.6,345,225.6z"/>

			<polygon fill-rule="evenodd" fill="#FEFEFE" points="57.9,98.7 65.9,110 57.3,121.9 61.2,121.9 67.9,112.6 74.5,121.9 
				78.5,121.9 69.9,110 77.9,98.7 73.9,98.7 67.9,107 61.9,98.7 			"/>
			<polygon fill-rule="evenodd" fill="#FEFEFE" points="82.2,121.9 85.2,121.9 99.1,104 99.1,121.9 102.4,121.9 102.4,98.7 
				99.1,98.7 85.5,116.6 85.5,98.7 82.2,98.7 			"/>
	
			<polygon fill-rule="evenodd" fill="#FEFEFE" points="125.7,98.7 106.4,98.7 106.4,101.3 114.4,101.3 114.4,121.9 117.7,121.9 
				117.7,101.3 125.7,101.3 			"/>

			<polygon fill-rule="evenodd" fill="#FEFEFE" points="139,98.7 139,121.9 142.3,121.9 142.3,101.3 155.9,101.3 155.9,121.9 
				159.3,121.9 159.3,98.7 			"/>

			<path fill-rule="evenodd" fill="#FEFEFE" d="M175.5,98.7h-9v23.3h3.3v-7h5.6c6,0,10-3,10-8.3C185.5,101.7,181.5,98.7,175.5,98.7z
				 M175.5,112h-5.6v-10.6h5.6c4.3,0,6.6,2,6.6,5.3C182.2,110,179.9,112,175.5,112z"/>

			<path fill-rule="evenodd" fill="#FEFEFE" d="M200.8,98.3c-7,0-12.3,5-12.3,12c0,7,5.3,12,12.3,12c7.3,0,12.6-5,12.6-12
				C213.4,103.3,208.1,98.3,200.8,98.3z M200.8,119.3c-5,0-9-3.7-9-9c0-5.3,4-9,9-9c5.3,0,9.3,3.7,9.3,9
				C210.1,115.6,206.1,119.3,200.8,119.3z"/>

			<path fill-rule="evenodd" fill="#FEFEFE" d="M237,119.3V98.7h-16.3l-0.3,7.3c-0.3,7.3-1,13-4.3,13.3h-1v8h3v-5.3h19.3v5.3h3.3v-8
				H237z M233.7,119.3h-13.3c2-2,2.7-7,3-13v-5h10.3V119.3z"/>

			<path fill-rule="evenodd" fill="#FEFEFE" d="M255.9,98.7h-3.3L242,121.9h3.3l2.7-5.6h12.6l2.3,5.6h3.7L255.9,98.7z M249.3,113.6
				l5-11.6l5,11.6H249.3z"/>
		
			<polygon fill-rule="evenodd" fill="#FEFEFE" points="295.8,121.9 299.8,121.9 291.8,110 299.1,98.7 295.5,98.7 289.2,108.6 
				284.8,108.6 284.8,98.7 281.5,98.7 281.5,108.6 276.9,108.6 270.5,98.7 266.9,98.7 274.2,110 266.6,121.9 270.5,121.9 
				276.9,111.6 281.5,111.6 281.5,121.9 284.8,121.9 284.8,111.6 289.2,111.6 			"/>

</g>
</svg>
