<?xml version="1.0" encoding="UTF-8"?>
<!DOCTYPE svg PUBLIC "-//W3C//DTD SVG 1.1//EN" "http://www.w3.org/Graphics/SVG/1.1/DTD/svg11.dtd">
<!-- Creator: CorelDRAW X7 -->
<svg xmlns="http://www.w3.org/2000/svg" xml:space="preserve" width="125.957mm" height="79.5814mm" version="1.1" style="shape-rendering:geometricPrecision; text-rendering:geometricPrecision; image-rendering:optimizeQuality; fill-rule:evenodd; clip-rule:evenodd"
viewBox="0 0 6787 4288"
 xmlns:xlink="http://www.w3.org/1999/xlink">
 <defs>
  <style type="text/css">
   <![CDATA[
    .fil0 {fill:#010101}
    .fil3 {fill:#E91D25}
    .fil2 {fill:#F16122}
    .fil4 {fill:#F79E1D}
    .fil1 {fill:white}
   ]]>
  </style>
 </defs>
 <g id="Слой_x0020_1">
  <metadata id="CorelCorpID_0Corel-Layer"/>
  <path id="Card_Shape" class="fil0" d="M6557 4288l-6327 0c-127,0 -230,-103 -230,-230l0 -3828c0,-127 103,-230 230,-230l6327 0c126,0 230,103 230,230l0 3828c0,127 -104,230 -230,230z"/>
  <path id="XMLID_567_" class="fil1" d="M1905 3930l0 -242c0,-91 -55,-151 -148,-152 -50,-1 -100,14 -136,68 -26,-42 -68,-68 -127,-68 -41,0 -85,11 -116,56l0 -47 -77 0 0 385 78 0 0 -220c0,-67 40,-103 97,-103 56,0 87,37 87,102l0 221 78 0 0 -220c0,-67 42,-103 98,-103 57,0 88,37 88,102l0 221 78 0 0 0zm1255 -385l-140 0 0 -116 -79 0 0 116 -81 0 0 70 81 0 0 183c0,89 32,142 131,142 36,0 78,-11 105,-30l-25 -68c-24,14 -52,22 -74,22 -42,0 -58,-26 -58,-65l0 -184 140 0 0 -70zm714 -9c-48,0 -83,22 -104,56l0 -47 -77 0 0 385 77 0 0 -216c0,-64 31,-105 86,-105 17,0 34,2 52,10l26 -73c-19,-7 -43,-10 -60,-10l0 0zm-1080 40c-40,-27 -96,-40 -157,-40 -98,0 -157,46 -157,122 0,63 43,101 130,113l39 6c46,6 71,22 71,44 0,30 -34,49 -91,49 -60,0 -100,-19 -128,-40l-40 60c58,42 126,50 167,50 111,0 172,-51 172,-125 0,-67 -46,-102 -131,-114l-39 -6c-37,-5 -69,-16 -69,-42 0,-28 31,-47 77,-47 49,0 96,18 120,33l36 -63zm1168 162c0,117 78,202 202,202 58,0 97,-13 139,-46l-41 -60c-31,22 -64,34 -100,34 -67,0 -119,-53 -119,-130 0,-77 52,-130 119,-131 36,0 69,13 100,35l41 -60c-42,-33 -81,-46 -139,-46 -124,0 -202,85 -202,202l0 0zm-541 -202c-113,0 -190,81 -190,201 0,123 80,203 195,203 58,0 112,-14 158,-54l-41 -57c-32,26 -73,40 -112,40 -54,0 -109,-30 -118,-100l287 0c1,-10 2,-21 2,-32 -1,-120 -73,-201 -181,-201l0 0zm-2 71c57,0 96,37 102,98l-208 0c7,-57 44,-98 106,-98l0 0zm-1042 131l0 -193 -78 0 0 47c-26,-35 -70,-56 -124,-56 -108,0 -190,84 -190,202 0,118 82,202 190,202 54,0 98,-22 124,-56l0 46 78 0 0 -192zm-312 0c0,-73 46,-131 120,-131 71,0 118,56 118,131 0,75 -47,130 -118,130 -74,0 -120,-58 -120,-130l0 0zm2972 -202c-48,0 -83,22 -104,56l0 -47 -77 0 0 385 77 0 0 -216c0,-64 31,-105 86,-105 17,0 35,2 52,10l26 -73c-19,-7 -43,-10 -60,-10l0 0zm621 339c5,0 10,1 15,3 5,2 9,4 12,8 4,3 7,7 9,12 2,5 3,10 3,15 0,5 -1,10 -3,15 -2,4 -5,8 -9,12 -3,3 -7,6 -12,8 -5,2 -10,3 -15,3 -6,0 -11,-1 -16,-3 -4,-2 -9,-5 -12,-8 -4,-4 -6,-8 -8,-12 -2,-5 -3,-10 -3,-15 0,-5 1,-10 3,-15 2,-5 4,-9 8,-12 3,-4 8,-6 12,-8 5,-2 10,-3 16,-3zm0 68c4,0 8,-1 11,-3 4,-1 7,-3 10,-6 2,-3 4,-6 6,-10 2,-3 2,-7 2,-11 0,-4 0,-8 -2,-12 -2,-3 -4,-7 -6,-9 -3,-3 -6,-5 -10,-7 -3,-1 -7,-2 -11,-2 -4,0 -8,1 -12,2 -4,2 -7,4 -9,7 -3,2 -5,6 -7,9 -1,4 -2,8 -2,12 0,4 1,8 2,11 2,4 4,7 7,10 2,3 5,5 9,6 4,2 8,3 12,3zm2 -48c5,0 8,1 11,3 2,2 3,5 3,8 0,3 -1,6 -3,8 -2,1 -4,3 -8,3l12 13 -10 0 -10 -13 -4 0 0 13 -7 0 0 -35 16 0 0 0zm-9 7l0 9 9 0c2,0 4,0 5,-1 1,-1 1,-2 1,-4 0,-1 0,-2 -1,-3 -1,-1 -3,-1 -5,-1l-9 0 0 0zm-910 -164l0 -193 -77 0 0 47c-27,-35 -70,-56 -125,-56 -108,0 -190,84 -190,202 0,118 82,202 190,202 55,0 98,-22 125,-56l0 46 77 0 0 -192zm-312 0c0,-73 46,-131 120,-131 71,0 118,56 118,131 0,75 -47,130 -118,130 -74,0 -120,-58 -120,-130l0 0zm1089 0l0 -347 -77 0 0 201c-27,-35 -70,-56 -125,-56 -108,0 -190,84 -190,202 0,118 82,202 190,202 55,0 98,-22 125,-56l0 46 77 0 0 -192zm-311 0c0,-73 45,-131 120,-131 70,0 117,56 117,131 0,75 -47,130 -117,130 -75,0 -120,-58 -120,-130z"/>
  <rect class="fil2" x="2704" y="615" width="1394" height="2277"/>
  <path id="XMLID_330_" class="fil3" d="M2848 1754c0,-462 216,-873 553,-1139 -246,-194 -557,-309 -895,-309 -800,0 -1448,648 -1448,1448 0,800 648,1448 1448,1448 338,0 649,-116 895,-310 -337,-265 -553,-676 -553,-1138z"/>
  <path class="fil4" d="M5606 2651l0 -46 19 0 0 -10 -48 0 0 10 19 0 0 46 10 0 0 0zm93 0l0 -56 -15 0 -17 39 -17 -39 -14 0 0 56 10 0 0 -42 16 36 11 0 16 -36 0 42 10 0z"/>
  <path class="fil4" d="M5744 1754c0,800 -648,1448 -1448,1448 -338,0 -649,-116 -895,-310 337,-265 553,-676 553,-1138 0,-462 -216,-873 -553,-1139 246,-194 557,-309 895,-309 800,0 1448,648 1448,1448z"/>
 </g>
</svg>
