<?xml version="1.0" encoding="UTF-8"?>
<!DOCTYPE svg PUBLIC "-//W3C//DTD SVG 1.1//EN" "http://www.w3.org/Graphics/SVG/1.1/DTD/svg11.dtd">
<!-- Creator: CorelDRAW X7 -->
<svg xmlns="http://www.w3.org/2000/svg" xml:space="preserve" width="126.034mm" height="79.6576mm" version="1.1" style="shape-rendering:geometricPrecision; text-rendering:geometricPrecision; image-rendering:optimizeQuality; fill-rule:evenodd; clip-rule:evenodd"
viewBox="0 0 1947 1231"
 xmlns:xlink="http://www.w3.org/1999/xlink">
 <defs>
  <style type="text/css">
   <![CDATA[
    .str0 {stroke:#2B2A29;stroke-width:1.17741}
    .fil1 {fill:#FEFEFE}
    .fil0 {fill:#010101}
   ]]>
  </style>
 </defs>
 <g id="Слой_x0020_1">
  <metadata id="CorelCorpID_0Corel-Layer"/>
  <path id="Card_Shape" class="fil0 str0" d="M1881 1230l-1815 0c-36,0 -65,-29 -65,-66l0 -1098c0,-36 29,-65 65,-65l1815 0c36,0 66,29 66,65l0 1098c0,37 -30,66 -66,66z"/>
  <path class="fil1" d="M559 698l0 -88c0,-25 -13,-37 -36,-37 -18,0 -34,11 -41,22 -5,-13 -16,-22 -34,-22 -19,0 -35,12 -40,19l0 -16 -32 0 0 122 32 0 0 -82c5,-7 14,-14 25,-14 13,0 18,8 18,19l0 77 33 0 0 -82c4,-7 13,-14 25,-14 13,0 18,8 18,19l0 77 32 0zm87 3c-39,0 -64,-29 -64,-64 0,-35 25,-64 64,-64 41,0 65,29 65,64 0,35 -24,64 -65,64zm0 -29c20,0 32,-16 32,-35 0,-19 -12,-35 -32,-35 -19,0 -30,16 -30,35 0,19 11,35 30,35zm202 26l0 -86c0,-24 -13,-39 -39,-39 -20,0 -35,10 -43,19l0 -16 -32 0 0 122 32 0 0 -82c6,-7 15,-14 28,-14 13,0 22,6 22,22l0 74 32 0zm88 3c-40,0 -64,-29 -64,-64 0,-35 24,-64 64,-64 40,0 64,29 64,64 0,35 -24,64 -64,64zm0 -29c20,0 31,-16 31,-35 0,-19 -11,-35 -31,-35 -20,0 -31,16 -31,35 0,19 11,35 31,35zm120 -13c5,8 17,13 27,13 19,0 31,-14 31,-35 0,-21 -12,-35 -31,-35 -10,0 -22,6 -27,14l0 43zm0 39l-32 0 0 -168 32 0 0 62c9,-12 23,-19 37,-19 31,0 54,24 54,64 0,41 -23,64 -54,64 -14,0 -28,-7 -37,-19l0 16zm220 0l-32 0 0 -13c-9,10 -23,16 -39,16 -19,0 -42,-13 -42,-41 0,-28 23,-39 42,-39 16,0 31,6 39,15l0 -16c0,-12 -11,-21 -27,-21 -13,0 -25,5 -35,15l-12 -22c14,-13 34,-19 53,-19 27,0 53,11 53,46l0 79zm-58 -19c10,0 20,-3 26,-10l0 -16c-6,-7 -16,-10 -26,-10 -12,0 -23,6 -23,18 0,12 11,18 23,18l0 0zm203 19l0 -86c0,-24 -13,-39 -39,-39 -20,0 -35,10 -43,19l0 -16 -32 0 0 122 32 0 0 -82c5,-7 15,-14 28,-14 13,0 22,6 22,22l0 74 32 0zm150 0l-49 -67 48 -55 -40 0 -46 54 0 -100 -31 0 0 168 31 0 0 -31 15 -16 32 47 40 0z"/>
 </g>
</svg>
