<?xml version="1.0" encoding="UTF-8"?>
<!DOCTYPE svg PUBLIC "-//W3C//DTD SVG 1.1//EN" "http://www.w3.org/Graphics/SVG/1.1/DTD/svg11.dtd">
<!-- Creator: CorelDRAW X7 -->
<svg xmlns="http://www.w3.org/2000/svg" xml:space="preserve" width="126.034mm" height="79.6576mm" version="1.1" style="shape-rendering:geometricPrecision; text-rendering:geometricPrecision; image-rendering:optimizeQuality; fill-rule:evenodd; clip-rule:evenodd"
viewBox="0 0 2990 1890"
 xmlns:xlink="http://www.w3.org/1999/xlink">
 <defs>
  <style type="text/css">
   <![CDATA[
    .str0 {stroke:#2B2A29;stroke-width:1.80766}
    .fil0 {fill:#FEFEFE}
    .fil1 {fill:black}
    .fil2 {fill:#565656}
   ]]>
  </style>
 </defs>
 <g id="Слой_x0020_1">
  <metadata id="CorelCorpID_0Corel-Layer"/>
  <path id="Card_Shape" class="fil0 str0" d="M2888 1889l-2786 0c-56,0 -101,-46 -101,-101l0 -1686c0,-56 45,-101 101,-101l2786 0c55,0 101,45 101,101l0 1686c0,55 -46,101 -101,101z"/>
  <g id="_2056717727968">
   <g>
    <path class="fil1" d="M381 1017l0 -80c0,-23 -12,-34 -32,-34 -17,0 -32,10 -39,20 -4,-12 -14,-20 -31,-20 -17,0 -32,11 -36,17l0 -14 -30 0 0 111 30 0 0 -75c4,-6 13,-13 23,-13 12,0 17,8 17,18l0 70 29 0 0 -75c4,-6 13,-13 23,-13 12,0 17,8 17,18l0 70 29 0zm81 3c-37,0 -59,-27 -59,-59 0,-31 22,-58 59,-58 37,0 59,27 59,58 0,32 -22,59 -59,59zm0 -26c18,0 29,-15 29,-33 0,-17 -11,-32 -29,-32 -18,0 -28,15 -28,32 0,18 10,33 28,33zm186 23l0 -78c0,-22 -12,-36 -37,-36 -18,0 -32,9 -39,17l0 -14 -29 0 0 111 29 0 0 -75c5,-6 14,-13 26,-13 12,0 20,5 20,21l0 67 30 0zm81 3c-37,0 -59,-27 -59,-59 0,-31 22,-58 59,-58 37,0 59,27 59,58 0,32 -22,59 -59,59zm0 -26c18,0 28,-15 28,-33 0,-17 -10,-32 -28,-32 -19,0 -29,15 -29,32 0,18 10,33 29,33zm110 -12c5,7 15,12 25,12 17,0 28,-13 28,-32 0,-20 -11,-33 -28,-33 -10,0 -20,6 -25,13l0 40zm0 35l-30 0 0 -154 30 0 0 57c9,-11 21,-17 34,-17 29,0 50,22 50,59 0,37 -22,58 -50,58 -13,0 -25,-6 -34,-17l0 14zm202 0l-29 0 0 -11c-8,9 -21,14 -35,14 -18,0 -39,-12 -39,-37 0,-26 21,-36 39,-36 14,0 27,5 35,14l0 -15c0,-12 -10,-19 -25,-19 -12,0 -23,4 -32,13l-11 -19c13,-12 31,-18 48,-18 26,0 49,10 49,42l0 72zm-53 -17c10,0 19,-3 24,-9l0 -14c-5,-7 -14,-10 -24,-10 -11,0 -21,6 -21,17 0,10 10,16 21,16l0 0zm187 17l0 -78c0,-22 -12,-36 -36,-36 -19,0 -32,9 -39,17l0 -14 -30 0 0 111 30 0 0 -75c5,-6 14,-13 25,-13 13,0 21,5 21,21l0 67 29 0zm138 0l-45 -61 44 -50 -36 0 -43 49 0 -92 -29 0 0 154 29 0 0 -28 14 -15 29 43 37 0z"/>
    <g>
     <g>
      <path class="fil2" d="M2691 884l24 0 0 77 1 0 31 -37 22 0 -34 40 41 50 -27 0 -34 -46 0 0 0 46 -24 0 0 -130 0 0zm-1143 6l0 71c0,25 7,38 27,38 19,0 27,-16 27,-36l0 -73 23 0 0 77c0,32 -21,49 -51,49 -34,0 -52,-16 -52,-50l0 -76 26 0 0 0zm130 46c8,-8 19,-12 31,-12 21,0 32,11 32,33l0 57 -24 0 0 -54c0,-13 -6,-21 -18,-21 -12,0 -21,8 -21,23l0 52 -24 0 0 -88 24 0 0 10 0 0zm91 78l24 0 0 -88 -24 0 0 88zm-2 -115c0,-7 5,-14 13,-14 9,0 15,7 15,14 0,8 -5,15 -14,15 -9,0 -14,-7 -14,-15l0 0zm79 115l-38 -89 25 0c8,21 16,40 23,65l1 0c8,-25 15,-44 24,-65l22 0 -40 89 -17 0 0 0zm128 -55c1,-13 -4,-22 -15,-22 -14,0 -20,10 -20,22l35 0zm-35 13c-1,17 11,29 26,29 9,0 18,-3 24,-7l7 13c-12,7 -25,9 -35,9 -28,0 -48,-19 -48,-48 0,-27 20,-44 46,-44 28,0 40,22 38,48l-58 0zm105 -31l0 0 5 -7c3,-4 8,-10 16,-10 5,0 11,2 16,8l-9 16c-4,-2 -7,-3 -11,-3 -9,0 -17,6 -17,26l0 43 -24 0 0 -88 24 0 0 15 0 0zm101 1c-6,-4 -11,-5 -16,-5 -5,0 -10,3 -10,9 0,7 8,11 18,18 13,10 17,19 17,27 0,12 -14,25 -34,25 -12,0 -21,-4 -30,-10l8 -12c5,4 13,9 19,9 7,0 13,-4 13,-11 0,-9 -9,-13 -18,-19 -10,-7 -17,-14 -17,-25 0,-14 14,-24 31,-24 10,0 20,2 27,8l-8 10 0 0zm68 25c-12,4 -18,10 -18,21 0,7 5,13 11,13 10,0 22,-12 20,-38l-13 4 0 0zm8 39c-7,5 -15,10 -23,10 -14,0 -26,-10 -26,-26 0,-17 12,-27 33,-33l21 -6c-1,-8 -8,-13 -16,-13 -10,0 -17,3 -24,9l-8 -11c12,-9 23,-12 35,-12 17,0 37,5 37,33l0 36c0,7 1,15 4,21l-26 0c-1,-3 -2,-8 -2,-13l-5 5 0 0zm56 8l24 0 0 -130 -24 0 0 130zm236 -47c-12,4 -18,10 -18,21 0,7 5,13 11,13 10,0 22,-12 20,-38l-13 4zm8 39c-7,5 -15,10 -24,10 -14,0 -25,-10 -25,-26 0,-17 12,-27 33,-33l21 -6c-1,-8 -8,-13 -16,-13 -10,0 -18,3 -24,9l-8 -11c12,-9 23,-12 35,-12 17,0 37,5 37,33l0 36c0,7 1,15 4,21l-26 0c-1,-3 -2,-8 -2,-13l-5 5 0 0zm80 -70c8,-8 19,-12 30,-12 21,0 33,11 33,33l0 57 -24 0 0 -54c0,-13 -6,-21 -18,-21 -12,0 -21,8 -21,23l0 52 -24 0 0 -88 24 0 0 10 0 0zm-213 63l13 0c14,0 25,-7 25,-21 0,-14 -11,-20 -25,-20l-13 0 0 41zm0 -57l8 0c15,0 25,-9 25,-20 0,-11 -9,-16 -20,-16l-13 0 0 36 0 0zm-25 73l0 -124 45 0c22,0 37,9 37,26 0,20 -17,28 -26,30l0 1c16,0 34,11 34,30 0,21 -19,37 -48,37l-42 0z"/>
     </g>
    </g>
    <polygon class="fil1" points="1412,854 1422,854 1422,1085 1412,1085 "/>
   </g>
  </g>
 </g>
</svg>
