<?xml version="1.0" encoding="UTF-8"?>
<!DOCTYPE svg PUBLIC "-//W3C//DTD SVG 1.1//EN" "http://www.w3.org/Graphics/SVG/1.1/DTD/svg11.dtd">
<!-- Creator: CorelDRAW X7 -->
<svg xmlns="http://www.w3.org/2000/svg" xml:space="preserve" width="125.957mm" height="79.5814mm" version="1.1" style="shape-rendering:geometricPrecision; text-rendering:geometricPrecision; image-rendering:optimizeQuality; fill-rule:evenodd; clip-rule:evenodd"
viewBox="0 0 6787 4288"
 xmlns:xlink="http://www.w3.org/1999/xlink">
 <defs>
  <style type="text/css">
   <![CDATA[
    .fil1 {fill:#FEFEFE}
    .fil0 {fill:#010101}
   ]]>
  </style>
 </defs>
 <g id="Слой_x0020_1">
  <metadata id="CorelCorpID_0Corel-Layer"/>
  <path id="Card_Shape" class="fil0" d="M6557 4288l-6327 0c-127,0 -230,-103 -230,-230l0 -3828c0,-127 103,-230 230,-230l6327 0c126,0 230,103 230,230l0 3828c0,127 -104,230 -230,230z"/>
  <path class="fil1" d="M2523 2939c-7,-23 -13,-52 -15,-87 -2,-34 -1,-74 10,-121 11,-47 32,-101 58,-147 25,-45 55,-82 90,-116 35,-35 75,-68 113,-104 37,-36 72,-74 104,-116 33,-43 64,-89 93,-129 29,-41 57,-76 86,-108 30,-32 61,-61 98,-83 37,-21 80,-35 116,-43 35,-7 63,-7 92,-4 30,3 60,11 91,22 30,11 61,26 91,51 30,24 59,57 85,90 26,34 48,67 73,107 26,40 54,88 83,130 29,43 59,81 89,114 30,32 60,60 88,88 27,28 53,57 73,88 20,30 34,62 46,89 11,26 19,47 26,75 7,27 12,62 13,102 1,39 -2,84 -13,121 -12,37 -32,67 -50,91 -18,25 -35,43 -56,62 -21,18 -46,37 -78,51 -32,14 -71,23 -110,26 -39,3 -77,-1 -120,-10 -42,-10 -88,-24 -137,-40 -49,-15 -100,-30 -145,-41 -46,-11 -84,-17 -127,-16 -43,1 -89,9 -140,22 -51,13 -105,30 -161,41 -56,12 -112,18 -160,17 -47,0 -85,-8 -119,-23 -35,-15 -67,-37 -93,-62 -27,-25 -48,-54 -63,-76 -15,-22 -24,-38 -31,-61zm1825 -1231c127,71 151,267 52,437 -98,170 -280,250 -407,178 -127,-71 -150,-267 -52,-437 98,-170 280,-250 407,-178zm-1954 -57c130,-53 293,46 365,221 72,176 24,361 -106,414 -130,53 -293,-46 -364,-222 -72,-175 -25,-360 105,-413zm1394 -542c-154,-35 -318,105 -365,314 -48,208 38,406 192,441 155,35 318,-105 366,-313 48,-209 -39,-406 -193,-442zm-839 -8c151,-23 299,124 331,328 31,204 -66,388 -217,411 -151,23 -299,-123 -330,-327 -32,-204 65,-389 216,-412z"/>
 </g>
</svg>
