<?xml version="1.0" encoding="UTF-8"?>
<!DOCTYPE svg PUBLIC "-//W3C//DTD SVG 1.1//EN" "http://www.w3.org/Graphics/SVG/1.1/DTD/svg11.dtd">
<!-- Creator: CorelDRAW X7 -->
<svg xmlns="http://www.w3.org/2000/svg" xml:space="preserve" width="125.957mm" height="79.5814mm" version="1.1" style="shape-rendering:geometricPrecision; text-rendering:geometricPrecision; image-rendering:optimizeQuality; fill-rule:evenodd; clip-rule:evenodd"
viewBox="0 0 899 568"
 xmlns:xlink="http://www.w3.org/1999/xlink">
 <defs>
  <style type="text/css">
   <![CDATA[
    .fil1 {fill:#FEFEFE}
    .fil0 {fill:#FF6E00}
   ]]>
  </style>
 </defs>
 <g id="Слой_x0020_1">
  <metadata id="CorelCorpID_0Corel-Layer"/>
  <path id="Card_Shape" class="fil0" d="M869 568l-839 0c-16,0 -30,-13 -30,-30l0 -508c0,-16 14,-30 30,-30l839 0c17,0 30,14 30,30l0 508c0,17 -13,30 -30,30z"/>
  <path class="fil1" d="M265 255l0 25 -34 0 0 -25 -8 0 0 59 8 0 0 -27 34 0 0 27 8 0 0 -59 -8 0zm54 59c18,0 31,-12 31,-30 0,-17 -13,-30 -31,-30 -19,0 -32,13 -32,30 0,17 13,30 32,30zm0 -7c-14,0 -24,-10 -24,-23 0,-13 10,-23 24,-23 13,0 22,10 22,23 0,13 -9,23 -22,23zm81 -24c6,-2 10,-7 10,-13 0,-10 -8,-15 -21,-15l-25 0 0 59 27 0c14,0 22,-6 22,-16 0,-8 -5,-13 -13,-15zm-28 -22l16 0c9,0 13,4 13,10 0,6 -4,10 -13,10l-16 0 0 -20zm18 46l-18 0 0 -20 18 0c9,0 14,3 14,10 0,7 -5,10 -14,10zm37 7l7 0 36 -46 0 46 8 0 0 -59 -8 0 -35 45 0 -45 -8 0 0 59zm112 -59l0 25 -34 0 0 -25 -9 0 0 59 9 0 0 -27 34 0 0 27 8 0 0 -59 -8 0zm66 59l10 0 -22 -31 21 -28 -9 0 -19 25 -12 0 0 -25 -8 0 0 59 8 0 0 -26 12 0 19 26zm63 0l9 0 -27 -59 -9 0 -26 59 8 0 7 -15 31 0 7 15zm-35 -22l13 -29 12 29 -25 0z"/>
 </g>
</svg>
