<?xml version="1.0" encoding="UTF-8"?>
<!DOCTYPE svg PUBLIC "-//W3C//DTD SVG 1.1//EN" "http://www.w3.org/Graphics/SVG/1.1/DTD/svg11.dtd">
<!-- Creator: CorelDRAW X7 -->
<svg xmlns="http://www.w3.org/2000/svg" xml:space="preserve" width="126.034mm" height="79.6576mm" version="1.1" style="shape-rendering:geometricPrecision; text-rendering:geometricPrecision; image-rendering:optimizeQuality; fill-rule:evenodd; clip-rule:evenodd"
viewBox="0 0 1950 1232"
 xmlns:xlink="http://www.w3.org/1999/xlink">
 <defs>
  <style type="text/css">
   <![CDATA[
    .str0 {stroke:#2B2A29;stroke-width:1.17868}
    .fil0 {fill:#FEFEFE}
    .fil3 {fill:#2B2A29;fill-rule:nonzero}
    .fil1 {fill:#2F2E2E;fill-rule:nonzero}
    .fil2 {fill:#69C400;fill-rule:nonzero}
   ]]>
  </style>
 </defs>
 <g id="Слой_x0020_1">
  <metadata id="CorelCorpID_0Corel-Layer"/>
  <path id="Card_Shape" class="fil0 str0" d="M1883 1232l-1816 0c-37,0 -66,-30 -66,-66l0 -1099c0,-37 29,-66 66,-66l1816 0c36,0 66,29 66,66l0 1099c0,36 -30,66 -66,66z"/>
  <polygon class="fil1" points="175,736 286,736 286,625 175,625 "/>
  <polygon class="fil2" points="545,735 497,735 497,565 671,565 671,735 623,735 623,598 545,598 "/>
  <path class="fil2" d="M694 612l0 0 0 168 44 0 0 -57c15,16 39,17 45,17 43,0 69,-27 69,-66 0,-41 -26,-67 -68,-67 -10,0 -31,2 -48,20l-1 0 1 -15 -42 0zm42 61c0,-34 22,-41 35,-41 13,0 34,7 34,41 0,22 -9,42 -34,42 -26,0 -35,-20 -35,-42z"/>
  <path class="fil2" d="M962 721c-17,15 -32,19 -50,19 -48,0 -50,-36 -50,-51l0 -77 45 0 0 71c0,25 8,32 25,32 28,0 30,-25 30,-34l0 -69 44 0 0 123 -44 0 0 -14z"/>
  <path class="fil2" d="M1070 683l0 0 27 0c21,0 25,7 25,15 0,5 -3,13 -25,13l-27 0 0 -28zm-45 -71l0 0 0 123 88 0c32,0 55,-6 55,-31 0,-20 -11,-28 -36,-33l0 0c16,-2 30,-12 30,-29 0,-30 -35,-30 -48,-30l-89 0zm45 25l24 0c12,0 23,2 23,12 0,11 -17,11 -24,11l-23 0 0 -23z"/>
  <path class="fil2" d="M1224 652l0 0c0,-18 19,-20 27,-20 5,0 23,0 24,16l0 4c-1,12 -13,9 -45,14 -27,3 -56,10 -56,38 0,11 5,36 52,36 18,0 38,-5 50,-17l1 0 3 12 47 0 0 -2c-8,-1 -9,-10 -9,-23l1 -57c0,-14 -1,-46 -68,-46 -16,0 -68,2 -70,45l43 0zm51 32c0,25 -22,31 -32,31 -8,0 -23,-2 -23,-14 0,-14 17,-17 26,-18 17,-2 16,-2 29,-6l0 7z"/>
  <polygon class="fil2" points="1324,637 1324,612 1467,612 1467,637 1417,637 1417,735 1373,735 1373,637 "/>
  <path class="fil2" d="M401 510l0 0 0 167 -23 0c-10,-82 -62,-134 -144,-144l0 -23 167 0zm-226 -58l0 138 30 0c77,0 116,39 116,117l0 29 138 0 0 -284 -284 0z"/>
  <path class="fil3" d="M1614 697l0 35 -131 0c1,-13 5,-26 12,-37 8,-12 22,-28 43,-48 17,-15 27,-26 31,-32 5,-7 8,-15 8,-23 0,-8 -3,-14 -7,-19 -5,-4 -11,-7 -19,-7 -8,0 -14,3 -18,7 -5,5 -8,13 -8,24l-38 -4c2,-21 9,-35 21,-44 12,-9 27,-14 44,-14 20,0 35,5 46,16 11,10 16,23 16,39 0,9 -1,17 -4,25 -3,8 -8,16 -15,25 -5,6 -13,14 -25,25 -12,11 -19,18 -23,22 -3,3 -5,7 -7,10l74 0z"/>
  <path class="fil3" d="M1714 660l0 -68 -45 68 45 0zm0 72l0 -39 -81 0 0 -33 85 -125 32 0 0 125 24 0 0 33 -24 0 0 39 -36 0z"/>
 </g>
</svg>
