<?xml version="1.0" encoding="UTF-8"?>
<!DOCTYPE svg PUBLIC "-//W3C//DTD SVG 1.1//EN" "http://www.w3.org/Graphics/SVG/1.1/DTD/svg11.dtd">
<!-- Creator: CorelDRAW X7 -->
<svg xmlns="http://www.w3.org/2000/svg" xml:space="preserve" width="125.957mm" height="79.5814mm" version="1.1" style="shape-rendering:geometricPrecision; text-rendering:geometricPrecision; image-rendering:optimizeQuality; fill-rule:evenodd; clip-rule:evenodd"
viewBox="0 0 2986 1886"
 xmlns:xlink="http://www.w3.org/1999/xlink">
 <defs>
  <style type="text/css">
   <![CDATA[
    .fil0 {fill:#FEFEFE}
    .fil2 {fill:#1A1F71}
    .fil1 {fill:#F7B600}
   ]]>
  </style>
 </defs>
 <g id="Слой_x0020_1">
  <metadata id="CorelCorpID_0Corel-Layer"/>
  <path id="Card_Shape" class="fil0" d="M2885 1886l-2784 0c-56,0 -101,-45 -101,-101l0 -1684c0,-56 45,-101 101,-101l2784 0c55,0 101,45 101,101l0 1684c0,56 -46,101 -101,101z"/>
  <path class="fil1" d="M2915 1588l-2844 0 0 197c0,17 14,30 30,30l2784 0c16,0 30,-13 30,-30l0 -197z"/>
  <path class="fil2" d="M71 308l2844 0 0 -207c0,-16 -14,-30 -30,-30l-2784 0c-16,0 -30,14 -30,30l0 207z"/>
  <g>
   <path id="Mark_1_" class="fil2" d="M1205 581l-298 711 -195 0 -146 -567c-9,-35 -17,-48 -44,-63 -44,-24 -117,-46 -182,-60l5 -21 313 0c40,0 76,27 85,73l77 411 192 -484 193 0zm762 479c1,-188 -259,-198 -258,-282 1,-25 25,-53 78,-59 27,-4 99,-7 182,31l32 -151c-44,-16 -101,-31 -172,-31 -182,0 -310,97 -311,235 -1,103 92,160 161,194 72,35 96,57 96,88 -1,48 -58,69 -110,70 -93,1 -147,-25 -189,-45l-34 156c43,19 123,37 205,37 193,0 320,-95 320,-243l0 0zm481 232l170 0 -149 -711 -157 0c-35,0 -65,21 -78,52l-276 659 193 0 38 -106 236 0 23 106zm-206 -252l97 -267 56 267 -153 0zm-774 -459l-152 711 -184 0 152 -711 184 0z"/>
  </g>
 </g>
</svg>
