<?xml version="1.0" encoding="UTF-8"?>
<!DOCTYPE svg PUBLIC "-//W3C//DTD SVG 1.1//EN" "http://www.w3.org/Graphics/SVG/1.1/DTD/svg11.dtd">
<!-- Creator: CorelDRAW X7 -->
<svg xmlns="http://www.w3.org/2000/svg" xml:space="preserve" width="22.6967mm" height="22.6966mm" version="1.1" style="shape-rendering:geometricPrecision; text-rendering:geometricPrecision; image-rendering:optimizeQuality; fill-rule:evenodd; clip-rule:evenodd"
viewBox="0 0 37 37"
 xmlns:xlink="http://www.w3.org/1999/xlink">
 <defs>
  <style type="text/css">
   <![CDATA[
    .fil1 {fill:none}
    .fil0 {fill:#EBECEC}
    .fil3 {fill:#010101;fill-rule:nonzero}
    .fil2 {fill:#010101;fill-rule:nonzero}
   ]]>
  </style>
 </defs>
 <g id="Слой_x0020_1">
  <metadata id="CorelCorpID_0Corel-Layer"/>
  <path id="Card_Shape" class="fil0" d="M35 37l-33 0c-1,0 -2,-1 -2,-2l0 -33c0,-1 1,-2 2,-2l33 0c1,0 2,1 2,2l0 33c0,1 -1,2 -2,2z"/>
  <line class="fil1" x1="4" y1="18" x2="16" y2= "18" />
  <polygon class="fil2" points="5,18 10,15 10,16 7,18 16,18 16,19 7,19 10,21 10,22 10,22 5,19 4,18 "/>
  <line class="fil1" x1="32" y1="18" x2="21" y2= "18" />
  <polygon class="fil2" points="32,19 27,22 26,21 30,19 21,19 21,18 30,18 26,16 27,15 27,15 32,18 33,18 "/>
  <line class="fil1" x1="18" y1="14" x2="18" y2= "23" />
  <polygon class="fil3" points="19,14 19,23 18,23 18,14 "/>
 </g>
</svg>
