<?xml version="1.0" encoding="UTF-8"?>
<!DOCTYPE svg PUBLIC "-//W3C//DTD SVG 1.1//EN" "http://www.w3.org/Graphics/SVG/1.1/DTD/svg11.dtd">
<!-- Creator: CorelDRAW X7 -->
<svg xmlns="http://www.w3.org/2000/svg" xml:space="preserve" width="22.6967mm" height="22.6966mm" version="1.1" style="shape-rendering:geometricPrecision; text-rendering:geometricPrecision; image-rendering:optimizeQuality; fill-rule:evenodd; clip-rule:evenodd"
viewBox="0 0 40 40"
 xmlns:xlink="http://www.w3.org/1999/xlink">
 <defs>
  <style type="text/css">
   <![CDATA[
    .fil1 {fill:#010101}
    .fil0 {fill:#EBECEC}
    .fil2 {fill:#010101;fill-rule:nonzero}
   ]]>
  </style>
 </defs>
 <g id="Слой_x0020_1">
  <metadata id="CorelCorpID_0Corel-Layer"/>
  <path id="Card_Shape" class="fil0" d="M38 40l-36 0c-1,0 -2,-1 -2,-2l0 -36c0,-1 1,-2 2,-2l36 0c1,0 2,1 2,2l0 36c0,1 -1,2 -2,2z"/>
  <g id="_2056521665248">
   <polygon class="fil1" points="25,19 22,19 21,19 19,19 24,6 15,21 18,21 20,21 20,21 15,33 "/>
   <path class="fil2" d="M25 10l-1 1c3,1 6,5 6,9 0,5 -5,9 -10,9 0,0 0,0 0,0l-1 1c0,0 1,0 1,0 6,0 11,-5 11,-10 0,-5 -3,-9 -6,-10z"/>
   <path class="fil2" d="M16 28c-3,-1 -6,-5 -6,-8 0,-6 5,-10 10,-10 0,0 0,0 1,0l0 -1c0,0 -1,0 -1,0 -6,0 -11,5 -11,11 0,4 3,8 7,9l0 -1z"/>
  </g>
 </g>
</svg>
