<?xml version="1.0" encoding="UTF-8"?>
<!DOCTYPE svg PUBLIC "-//W3C//DTD SVG 1.1//EN" "http://www.w3.org/Graphics/SVG/1.1/DTD/svg11.dtd">
<!-- Creator: CorelDRAW X7 -->
<svg xmlns="http://www.w3.org/2000/svg" xml:space="preserve" width="125.957mm" height="79.5814mm" version="1.1" style="shape-rendering:geometricPrecision; text-rendering:geometricPrecision; image-rendering:optimizeQuality; fill-rule:evenodd; clip-rule:evenodd"
viewBox="0 0 944 596"
 xmlns:xlink="http://www.w3.org/1999/xlink">
 <defs>
  <style type="text/css">
   <![CDATA[
    .fil2 {fill:#010101}
    .fil1 {fill:#E00007}
    .fil0 {fill:#EBECEC}
   ]]>
  </style>
 </defs>
 <g id="Слой_x0020_1">
  <metadata id="CorelCorpID_0Corel-Layer"/>
  <path id="Card_Shape" class="fil0" d="M912 596l-880 0c-18,0 -32,-14 -32,-32l0 -532c0,-18 14,-32 32,-32l880 0c18,0 32,14 32,32l0 532c0,18 -14,32 -32,32z"/>
  <path class="fil1" d="M151 352c-10,-17 -16,-36 -16,-57 0,-37 19,-69 48,-89l58 87 -90 59z"/>
  <path class="fil2" d="M178 357c19,29 52,48 90,48 59,0 107,-48 107,-107 0,-59 -48,-107 -107,-107 -22,0 -43,7 -60,18l60 89 -90 59z"/>
  <path class="fil2" d="M450 278c12,0 20,-8 20,-20 0,-11 -8,-19 -20,-19 -11,0 -20,8 -20,19 0,12 9,20 20,20zm0 -6c-7,0 -13,-6 -13,-14 0,-8 6,-13 13,-13 8,0 13,5 13,13 0,8 -5,14 -13,14zm30 -33l0 39 7 0 0 -33 22 0 0 33 7 0 0 -39 -36 0zm53 0l-1 14c0,9 -1,19 -7,19 0,0 -1,0 -2,0l0 5c2,1 3,1 4,1 9,0 11,-11 11,-24l1 -9 16 0 0 33 7 0 0 -39 -29 0zm57 0c-6,0 -12,1 -16,5l3 5c3,-3 7,-4 12,-4 7,0 10,3 10,9l0 1 -11 0c-11,0 -15,5 -15,12 0,6 5,11 14,11 6,0 10,-2 13,-6l0 6 6 0 0 -24c0,-10 -6,-15 -16,-15zm-2 34c-5,0 -8,-3 -8,-7 0,-3 2,-6 8,-6l11 0 0 6c-2,4 -6,7 -11,7zm59 -34l-35 0 0 6 14 0 0 33 7 0 0 -33 14 0 0 -6zm21 0c-6,0 -12,1 -16,5l3 5c3,-3 8,-4 13,-4 6,0 10,3 10,9l0 1 -11 0c-12,0 -16,5 -16,12 0,6 6,11 15,11 6,0 10,-2 12,-6l0 6 7 0 0 -24c0,-10 -6,-15 -17,-15zm-1 34c-6,0 -9,-3 -9,-7 0,-3 2,-6 9,-6l11 0 0 6c-2,4 -6,7 -11,7zm-233 51l0 39 7 0 0 -33 21 0 0 33 7 0 0 -39 -35 0zm65 39c12,0 20,-8 20,-19 0,-12 -8,-20 -20,-20 -11,0 -20,8 -20,20 0,11 9,19 20,19zm0 -6c-7,0 -13,-5 -13,-13 0,-9 6,-14 13,-14 8,0 13,5 13,14 0,8 -5,13 -13,13zm63 0l0 -33 -29 0 -1 13c-1,10 -2,20 -7,20l-2 0 0 15 7 0 0 -9 32 0 0 9 6 0 0 -15 -6 0zm-24 -19l1 -8 16 0 0 27 -21 0c3,-3 4,-11 4,-19zm76 25c12,0 21,-9 21,-26 0,-16 -9,-26 -21,-26 -11,0 -20,10 -20,26 0,17 9,26 20,26zm0 -6c-8,0 -13,-7 -13,-20 0,-13 5,-19 13,-19 8,0 14,6 14,19 0,13 -6,20 -14,20zm32 -4c-3,0 -5,2 -5,5 0,2 1,4 3,5l-2 11 4 0 4 -10c1,-3 1,-4 1,-6 0,-3 -2,-5 -5,-5zm32 10c11,0 20,-9 20,-26 0,-16 -9,-26 -20,-26 -12,0 -21,10 -21,26 0,17 9,26 21,26zm0 -6c-8,0 -14,-7 -14,-20 0,-13 6,-19 14,-19 8,0 13,6 13,19 0,13 -5,20 -13,20zm48 6c12,0 21,-9 21,-26 0,-16 -9,-26 -21,-26 -12,0 -21,10 -21,26 0,17 9,26 21,26zm0 -6c-8,0 -13,-7 -13,-20 0,-13 5,-19 13,-19 8,0 14,6 14,19 0,13 -6,20 -14,20zm39 -18c7,0 12,-5 12,-14 0,-8 -5,-13 -12,-13 -7,0 -12,5 -12,13 0,9 5,14 12,14zm-4 24l5 0 35 -51 -6 0 -34 51zm4 -28c-5,0 -7,-3 -7,-10 0,-6 2,-9 7,-9 4,0 7,3 7,9 0,7 -3,10 -7,10zm32 28c7,0 12,-5 12,-14 0,-8 -5,-13 -12,-13 -7,0 -12,5 -12,13 0,9 5,14 12,14zm0 -4c-4,0 -7,-3 -7,-10 0,-6 3,-9 7,-9 4,0 7,3 7,9 0,6 -3,10 -7,10z"/>
 </g>
</svg>
