<?xml version="1.0" encoding="UTF-8"?>
<!DOCTYPE svg PUBLIC "-//W3C//DTD SVG 1.1//EN" "http://www.w3.org/Graphics/SVG/1.1/DTD/svg11.dtd">
<!-- Creator: CorelDRAW X7 -->
<svg xmlns="http://www.w3.org/2000/svg" xml:space="preserve" width="126.034mm" height="79.6576mm" version="1.1" style="shape-rendering:geometricPrecision; text-rendering:geometricPrecision; image-rendering:optimizeQuality; fill-rule:evenodd; clip-rule:evenodd"
viewBox="0 0 1157 731"
 xmlns:xlink="http://www.w3.org/1999/xlink">
 <defs>
  <style type="text/css">
   <![CDATA[
    .str0 {stroke:#2B2A29;stroke-width:0.699341}
    .fil0 {fill:#FEFEFE}
    .fil2 {fill:#010101}
    .fil1 {fill:#E00007}
   ]]>
  </style>
 </defs>
 <g id="Слой_x0020_1">
  <metadata id="CorelCorpID_0Corel-Layer"/>
  <path id="Card_Shape" class="fil0 str0" d="M1117 731l-1078 0c-21,0 -39,-18 -39,-39l0 -653c0,-21 18,-39 39,-39l1078 0c22,0 39,18 39,39l0 653c0,21 -17,39 -39,39z"/>
  <path class="fil1" d="M185 431c-12,-20 -19,-44 -19,-69 0,-45 23,-85 58,-109l71 106 -110 72z"/>
  <path class="fil2" d="M219 437c23,36 63,60 109,60 73,0 131,-59 131,-131 0,-73 -58,-132 -131,-132 -27,0 -52,9 -73,23l73 109 -109 71z"/>
  <path class="fil2" d="M552 341c14,0 24,-10 24,-24 0,-14 -10,-24 -24,-24 -15,0 -25,10 -25,24 0,14 10,24 25,24zm0 -8c-10,0 -16,-6 -16,-16 0,-10 6,-17 16,-17 9,0 15,7 15,17 0,10 -6,16 -15,16zm36 -40l0 47 9 0 0 -39 27 0 0 39 8 0 0 -47 -44 0zm65 0l-1 17c-1,12 -1,23 -9,23 0,0 -1,0 -2,0l0 7c2,1 3,1 5,1 11,0 13,-13 14,-30l0 -10 21 0 0 39 8 0 0 -47 -36 0zm69 0c-7,0 -14,2 -19,6l4 6c3,-3 9,-5 14,-5 9,0 13,4 13,11l0 2 -13 0c-14,0 -19,6 -19,14 0,8 6,14 17,14 7,0 13,-3 16,-7l0 6 8 0 0 -28c0,-13 -8,-19 -21,-19zm-1 41c-7,0 -11,-3 -11,-8 0,-4 3,-7 11,-7l13 0 0 7c-2,5 -7,8 -13,8zm72 -41l-43 0 0 8 17 0 0 39 9 0 0 -39 17 0 0 -8zm26 0c-8,0 -15,2 -20,6l4 6c3,-3 9,-5 15,-5 8,0 12,4 12,11l0 2 -13 0c-14,0 -19,6 -19,14 0,8 7,14 17,14 8,0 13,-3 16,-7l0 6 8 0 0 -28c0,-13 -7,-19 -20,-19zm-2 41c-7,0 -11,-3 -11,-8 0,-4 3,-7 11,-7l13 0 0 7c-2,5 -7,8 -13,8zm-286 64l0 47 9 0 0 -40 27 0 0 40 8 0 0 -47 -44 0zm81 47c14,0 24,-10 24,-24 0,-14 -10,-24 -24,-24 -14,0 -25,10 -25,24 0,14 11,24 25,24zm0 -7c-9,0 -16,-7 -16,-17 0,-10 7,-16 16,-16 9,0 16,6 16,16 0,10 -7,17 -16,17zm77 -1l0 -39 -37 0 0 15c-1,12 -2,24 -9,24l-2 0 0 19 8 0 0 -11 39 0 0 11 8 0 0 -19 -7 0zm-29 -23l0 -9 20 0 0 32 -26 0c4,-3 5,-13 6,-23zm93 31c14,0 25,-11 25,-31 0,-21 -11,-32 -25,-32 -15,0 -26,11 -26,32 0,20 11,31 26,31zm0 -7c-10,0 -17,-8 -17,-24 0,-16 7,-24 17,-24 9,0 16,8 16,24 0,16 -7,24 -16,24zm39 -5c-4,0 -6,3 -6,6 0,3 1,5 3,6l-3 13 6 0 4 -12c1,-4 1,-5 1,-7 0,-3 -2,-6 -5,-6zm38 12c15,0 25,-11 25,-31 0,-21 -10,-32 -25,-32 -14,0 -25,11 -25,32 0,20 11,31 25,31zm0 -7c-10,0 -16,-8 -16,-24 0,-16 6,-24 16,-24 10,0 17,8 17,24 0,16 -7,24 -17,24zm59 7c15,0 26,-11 26,-31 0,-21 -11,-32 -26,-32 -14,0 -25,11 -25,32 0,20 11,31 25,31zm0 -7c-9,0 -16,-8 -16,-24 0,-16 7,-24 16,-24 10,0 17,8 17,24 0,16 -7,24 -17,24zm48 -22c9,0 14,-7 14,-17 0,-10 -5,-17 -14,-17 -9,0 -15,7 -15,17 0,10 6,17 15,17zm-5 29l7 0 42 -63 -7 0 -42 63zm5 -34c-5,0 -9,-5 -9,-12 0,-7 4,-12 9,-12 5,0 9,4 9,12 0,7 -4,12 -9,12zm39 34c9,0 15,-7 15,-17 0,-10 -6,-17 -15,-17 -8,0 -14,7 -14,17 0,10 6,17 14,17zm0 -5c-5,0 -8,-4 -8,-12 0,-7 3,-12 8,-12 6,0 9,5 9,12 0,8 -3,12 -9,12z"/>
 </g>
</svg>
