<?xml version="1.0" encoding="UTF-8"?>
<!DOCTYPE svg PUBLIC "-//W3C//DTD SVG 1.1//EN" "http://www.w3.org/Graphics/SVG/1.1/DTD/svg11.dtd">
<!-- Creator: CorelDRAW X7 -->
<svg xmlns="http://www.w3.org/2000/svg" xml:space="preserve" width="22.6966mm" height="22.6966mm" version="1.1" style="shape-rendering:geometricPrecision; text-rendering:geometricPrecision; image-rendering:optimizeQuality; fill-rule:evenodd; clip-rule:evenodd"
viewBox="0 0 38 38"
 xmlns:xlink="http://www.w3.org/1999/xlink">
 <defs>
  <style type="text/css">
   <![CDATA[
    .str0 {stroke:#2B2A29;stroke-width:0.128256}
    .fil0 {fill:#EBECEC}
    .fil1 {fill:#010101;fill-rule:nonzero}
   ]]>
  </style>
 </defs>
 <g id="Слой_x0020_1">
  <metadata id="CorelCorpID_0Corel-Layer"/>
  <path id="Card_Shape" class="fil0" d="M36 38l-34 0c-1,0 -2,-1 -2,-2l0 -34c0,-1 1,-2 2,-2l34 0c1,0 2,1 2,2l0 34c0,1 -1,2 -2,2z"/>
  <g id="_2056717663264">
   <path class="fil1 str0" d="M9 23l-3 0c0,0 0,0 0,-1 0,0 0,0 0,0l3 0c1,0 1,0 1,0 0,1 0,1 -1,1z"/>
   <path class="fil1 str0" d="M32 23l-3 0c0,0 -1,0 -1,-1 0,0 1,0 1,0l3 0c0,0 1,0 1,0 0,1 -1,1 -1,1z"/>
   <path class="fil1 str0" d="M19 13c0,0 -1,-1 -1,-1l0 -3c0,0 1,0 1,0 0,0 1,0 1,0l0 3c0,0 -1,1 -1,1z"/>
   <path class="fil1 str0" d="M12 16c0,0 0,0 -1,0l-2 -2c0,-1 0,-1 0,-1 1,-1 1,-1 1,0l2 2c1,0 1,0 0,1 0,0 0,0 0,0z"/>
   <path class="fil1 str0" d="M26 16c0,0 0,0 0,0 0,-1 0,-1 0,-1l2 -2c0,-1 0,-1 1,0 0,0 0,0 0,1l-2 2c0,0 -1,0 -1,0z"/>
   <path class="fil1 str0" d="M13 22l12 0c0,-4 -3,-6 -6,-6 -3,0 -6,3 -6,6zm13 1l-13 0c-1,0 -1,0 -1,-1 0,0 0,0 0,0 0,-4 3,-7 7,-7 4,0 7,3 7,7 0,0 0,0 0,0 0,1 0,1 0,1z"/>
  </g>
 </g>
</svg>
