<?xml version="1.0" encoding="utf-8"?>
<!-- Generator: Adobe Illustrator 23.0.0, SVG Export Plug-In . SVG Version: 6.00 Build 0)  -->
<svg version="1.2" baseProfile="tiny" id="Слой_1"
	 xmlns="http://www.w3.org/2000/svg" xmlns:xlink="http://www.w3.org/1999/xlink" x="0px" y="0px" viewBox="0 0 20 20"
	 xml:space="preserve">
<g id="Слой_x0020_1">
	<path fill-rule="evenodd" d="M9.4,6.8L10.6,7l-1.2,7l-1.2-0.2L9.4,6.8z M12.4,12.2c1,0,1.7-0.8,1.7-1.8s-0.8-1.8-1.7-1.8
		c-1,0-1.8,0.8-1.8,1.8S11.3,12.2,12.4,12.2z M12.4,9.9c0.3,0,0.5,0.2,0.5,0.5S12.6,11,12.4,11c-0.3,0-0.6-0.3-0.6-0.6
		S12,9.9,12.4,9.9z M6.5,8.6c-1,0-1.8,0.8-1.8,1.8s0.8,1.8,1.8,1.8s1.8-0.8,1.8-1.8S7.4,8.6,6.5,8.6z M6.5,11
		c-0.3,0-0.6-0.3-0.6-0.6s0.3-0.5,0.6-0.5S7,10.1,7,10.4S6.8,11,6.5,11z M17.7,1.7c0.4-0.1,0.8-0.1,1,0.1c0.4,0.4,0,1.6-0.9,2.5
		l-0.1-1.2l-1-1C17,1.9,17.4,1.7,17.7,1.7L17.7,1.7z M10.3,2.4l4.2,0.5c-0.2,0.3-0.3,0.6-0.4,1l-0.4-0.4l-0.8,0.8l2.5,2.5l0.8-0.8
		l-0.8-0.8c-0.1-0.2-0.2-0.5-0.1-1c0.1-0.3,0.3-0.8,0.5-1.1h0.1l0.6,0.6l0.7,5.7l-8.6,8.6l-7-7L10.3,2.4z M18.5,9.8L18,5.7
		c1.8-1.4,2.6-3.6,1.5-4.7c-0.5-0.5-1.2-0.7-2.1-0.5c-0.8,0.2-1.4,0.6-2.1,1.3l0,0L9.8,1.2l-9.2,9.2L0.1,11l0.6,0.5l8,8.1L18.5,9.8z
		"/>
</g>
</svg>
