<?xml version="1.0" encoding="utf-8"?>
<!-- Generator: Adobe Illustrator 23.0.0, SVG Export Plug-In . SVG Version: 6.00 Build 0)  -->
<svg version="1.2" baseProfile="tiny" id="Слой_1"
	 xmlns="http://www.w3.org/2000/svg" xmlns:xlink="http://www.w3.org/1999/xlink" x="0px" y="0px" viewBox="0 0 20 20"
	 xml:space="preserve">
<g id="Слой_x0020_1">
	<path fill-rule="evenodd" d="M19.5,3.9c-0.4-0.4-0.9-0.7-1.5-0.7c-6.3,0-7.5,0-14.3,0L3.6,2.1C3.4,0.9,2.6,0,1.7,0h-1
		C0.4,0,0.1,0.3,0.1,0.6s0.3,0.6,0.6,0.6h1c0.2,0,0.6,0.4,0.7,1l1.7,12.7c0.1,0.5,0.4,1,0.8,1.4c0.4,0.3,0.7,0.5,1.1,0.6
		c-0.1,0.3-0.2,0.7-0.2,1c0,1.2,1,2.1,2.1,2.1s2.2-1,2.2-2.1c0-0.4-0.1-0.7-0.3-1h3.1c-0.1,0.3-0.2,0.6-0.2,1c0,1.2,1,2.1,2.1,2.1
		s2.2-1,2.2-2.1c0-0.4-0.1-0.7-0.3-1h1.5c0.4,0,0.6-0.3,0.6-0.6c0-0.4-0.2-0.6-0.6-0.6H6.5c-0.5,0-1.1-0.5-1.2-1.1l-0.1-0.9h11.7
		c0.6,0,1.1-0.2,1.5-0.6c0.4-0.4,0.7-1,0.8-1.5L20,5.4C20.1,4.8,19.9,4.2,19.5,3.9L19.5,3.9z M9,18c0,0.5-0.4,1-1,1
		c-0.5,0-1-0.4-1-1c0-0.5,0.4-1,1-1C8.5,17,9,17.4,9,18z M15.9,18c0,0.5-0.4,1-1,1c-0.5,0-1-0.4-1-1c0-0.5,0.4-1,1-1
		C15.5,17,15.9,17.4,15.9,18z M18.8,5.3L18,11.6c-0.1,0.5-0.6,1-1.2,1H5L3.9,4.4c6.9,0,8.3,0,14.2,0c0.2,0,0.4,0.1,0.6,0.2
		C18.8,4.8,18.8,5.1,18.8,5.3z"/>
</g>
</svg>
