<?xml version="1.0" encoding="utf-8"?>
<!-- Generator: Adobe Illustrator 23.0.0, SVG Export Plug-In . SVG Version: 6.00 Build 0)  -->
<svg version="1.2" baseProfile="tiny" id="Слой_1"
	 xmlns="http://www.w3.org/2000/svg" xmlns:xlink="http://www.w3.org/1999/xlink" x="0px" y="0px" viewBox="0 0 20 20"
	 xml:space="preserve">
<g id="Слой_x0020_1">
	<path fill-rule="evenodd" d="M3.7,12.9C4,12.6,4.4,12.4,5,12.4c0.5,0,0.9,0.2,1.3,0.5c0.3,0.3,0.6,0.7,0.7,1.2h5.7V6.4V4.5H1.2v9.6
		H3C3,13.6,3.3,13.2,3.7,12.9z M3.7,16C3.3,15.8,3,15.3,3,14.9H0.7c-0.1,0-0.2-0.1-0.3-0.1c-0.1-0.1-0.1-0.2-0.1-0.3V4.1
		c0-0.1,0.1-0.2,0.1-0.3l0,0c0.1-0.1,0.1-0.1,0.3-0.1h12.4c0.1,0,0.2,0.1,0.3,0.1c0.1,0.1,0.1,0.1,0.1,0.3V6h3.1c0.1,0,0.1,0,0.2,0
		c0.1,0.1,0.1,0.1,0.1,0.1l2.9,4.5l0,0c0,0.1,0,0.1,0,0.1c0.1,0.1,0.1,0.1,0.1,0.1v3.6c0,0.1-0.1,0.2-0.1,0.3l0,0
		c-0.1,0.1-0.2,0.1-0.3,0.1H18c-0.1,0.4-0.3,0.8-0.7,1.1c-0.3,0.3-0.8,0.5-1.3,0.5c-0.5,0-0.9-0.1-1.3-0.5c-0.3-0.3-0.6-0.7-0.6-1.1
		h-0.9H6.9c-0.1,0.4-0.3,0.8-0.7,1.1c-0.3,0.3-0.8,0.5-1.3,0.5C4.4,16.5,4,16.4,3.7,16z M14.8,8.1v2.1h3.8l-1.3-2.1H14.8z M14.3,7.2
		h2.3l-0.3-0.4h-2.9v7.3H14c0.1-0.5,0.3-0.9,0.6-1.2c0.4-0.3,0.8-0.5,1.3-0.5c0.6,0,1,0.2,1.3,0.5c0.3,0.3,0.6,0.7,0.7,1.2h1.1v-3
		V11h-4.7c-0.1,0-0.2,0-0.3-0.1c-0.1-0.1-0.1-0.1-0.1-0.3V7.7c0-0.1,0.1-0.2,0.1-0.3l0,0C14.1,7.3,14.2,7.2,14.3,7.2z M15.1,15.3
		c0.2,0.2,0.6,0.3,0.8,0.3c0.3,0,0.6-0.1,0.8-0.3l0,0c0.3-0.2,0.3-0.6,0.3-0.8c0-0.3-0.1-0.6-0.3-0.8l0,0c-0.2-0.2-0.5-0.3-0.8-0.3
		c-0.3,0-0.6,0.1-0.8,0.3l0,0c-0.2,0.2-0.3,0.5-0.3,0.8C14.8,14.8,14.9,15.1,15.1,15.3z M4.2,15.3c0.2,0.2,0.5,0.3,0.8,0.3
		c0.3,0,0.6-0.1,0.8-0.3l0,0c0.2-0.2,0.3-0.6,0.3-0.8c0-0.3-0.1-0.6-0.3-0.8c-0.2-0.2-0.6-0.3-0.8-0.3c-0.3,0-0.6,0.1-0.8,0.3
		c-0.3,0.2-0.3,0.5-0.3,0.8C3.8,14.8,3.9,15.1,4.2,15.3L4.2,15.3z"/>
</g>
</svg>
