<?xml version="1.0" encoding="utf-8"?>
<!-- Generator: Adobe Illustrator 23.0.0, SVG Export Plug-In . SVG Version: 6.00 Build 0)  -->
<svg version="1.2" baseProfile="tiny" id="Слой_1"
	 xmlns="http://www.w3.org/2000/svg" xmlns:xlink="http://www.w3.org/1999/xlink" x="0px" y="0px" viewBox="0 0 20 20"
	 xml:space="preserve">
<g id="Слой_x0020_1">
	<path fill-rule="evenodd" fill="#2B2A29" d="M15.4,5.3c0,0.6-0.4,1-0.8,1.3c-0.1,0.1-0.4,0.3-0.4,0.4c0,0.3-0.2,0.5-0.5,0.5l0,0
		c-0.3,0-0.5-0.2-0.5-0.5c0-0.6,0.4-0.8,0.7-1.1c0.3-0.2,0.4-0.4,0.4-0.5c0-0.2-0.2-0.5-0.5-0.5c-0.3,0-0.5,0.3-0.5,0.5
		c0,0.3-0.2,0.5-0.5,0.5c-0.3,0-0.5-0.2-0.5-0.5c0-0.8,0.7-1.4,1.5-1.4C14.7,3.9,15.4,4.6,15.4,5.3z M13.7,7.9
		c-0.2,0-0.4,0.2-0.4,0.5l0,0c0,0.3,0.2,0.5,0.4,0.5c0.3,0,0.5-0.2,0.5-0.5C14.2,8.1,14,7.9,13.7,7.9z M20,3.4V9
		c0,1.3-1.1,2.3-2.4,2.3h-6.3c-0.1,0-0.2,0-0.3,0c-0.1,0-0.2,0-0.3,0c0,0.1-0.1,0.1-0.2,0.2c-0.1,0.1-0.1,0.1-0.1,0.1l-1.8,1.6
		c-0.1,0.1-0.4,0.2-0.6,0.1c-0.1-0.1-0.3-0.3-0.3-0.5V7.7H2.6c-0.8,0-1.4,0.6-1.4,1.4v5.5c0,0.8,0.6,1.4,1.4,1.4h7.1
		c0.1,0,0.2,0.1,0.3,0.1l1.5,1.3v-4.6c0-0.3,0.2-0.5,0.5-0.5c0.3,0,0.5,0.2,0.5,0.5v5.8c0,0.2-0.1,0.4-0.3,0.4
		c-0.1,0.1-0.1,0.1-0.2,0.1c-0.1,0-0.2-0.1-0.4-0.1l-2.1-2H2.6c-1.3,0-2.4-1.1-2.4-2.4V9.1c0-1.3,1.1-2.4,2.4-2.4h5.1V3.4
		c0-1.3,1.1-2.3,2.4-2.3h7.5C18.9,1.1,20,2.2,20,3.4z M19,3.4c0-0.7-0.6-1.3-1.4-1.3h-7.5c-0.8,0-1.4,0.6-1.4,1.3v3.8v4.6l1-0.8
		c0-0.1,0.1-0.1,0.1-0.1c0.4-0.4,0.6-0.5,1.1-0.5c0.1,0,0.1,0,0.3,0h6.3c0.8,0,1.4-0.6,1.4-1.3V3.4z"/>
</g>
</svg>
