<?xml version="1.0" encoding="utf-8"?>
<!-- Generator: Adobe Illustrator 23.0.0, SVG Export Plug-In . SVG Version: 6.00 Build 0)  -->
<svg version="1.2" baseProfile="tiny" id="Слой_1"
	 xmlns="http://www.w3.org/2000/svg" xmlns:xlink="http://www.w3.org/1999/xlink" x="0px" y="0px" viewBox="0 0 20 20"
	 xml:space="preserve">
<g id="Слой_x0020_1">
	<g id="_2027955502128">
		<g>
			<g>
				<path fill-rule="evenodd" d="M18.5,2.9c-0.9-1.1-2.3-1.7-3.8-1.7c-2.1,0-3.5,1.3-4.2,2.3C10.3,3.8,10.1,4,10,4.3
					C9.9,4,9.7,3.8,9.5,3.5c-0.7-1-2.1-2.3-4.2-2.3c-1.5,0-2.9,0.6-3.9,1.7C0.5,4,0,5.4,0,7c0,1.6,0.6,3.2,2.1,4.9
					c1.2,1.5,3,3,5.1,4.8c0.8,0.6,1.6,1.3,2.4,2.1h0.1c0.1,0.1,0.2,0.1,0.4,0.1s0.3,0,0.4-0.1h0.1c0.9-0.8,1.6-1.4,2.4-2.1
					c2.1-1.8,3.9-3.3,5.1-4.8C19.4,10.2,20,8.6,20,7C20,5.4,19.5,4,18.5,2.9z M12.1,15.7c-0.6,0.6-1.4,1.1-2.1,1.8
					c-0.7-0.6-1.4-1.2-2.1-1.8C3.9,12.3,1.1,10,1.1,7c0-1.3,0.4-2.4,1.2-3.3c0.7-0.9,1.8-1.4,2.9-1.4c1.6,0,2.6,1,3.3,1.9
					C9.1,4.9,9.4,5.7,9.4,6C9.5,6.2,9.7,6.3,10,6.3c0.2,0,0.5-0.1,0.6-0.4c0.1-0.3,0.4-1.1,0.9-1.8c0.6-0.9,1.6-1.9,3.3-1.9
					c1.1,0,2.2,0.5,2.9,1.4c0.8,0.9,1.1,2,1.1,3.3C18.8,10,16.1,12.3,12.1,15.7z"/>
			</g>
		</g>
	</g>
</g>
</svg>
