<?xml version="1.0" encoding="utf-8"?>
<!-- Generator: Adobe Illustrator 23.0.0, SVG Export Plug-In . SVG Version: 6.00 Build 0)  -->
<svg version="1.2" baseProfile="tiny" id="Слой_1"
	 xmlns="http://www.w3.org/2000/svg" xmlns:xlink="http://www.w3.org/1999/xlink" x="0px" y="0px" viewBox="0 0 20 20"
	 xml:space="preserve">
<g id="Слой_x0020_1">
	<g id="_2062642375056">
		<g>
			<g id="Layer_2_18_">
				<g>
					<path fill-rule="evenodd" d="M12.9,10.4c0.2,0,0.7-0.2,1-0.9l0.5-1.4l0.2,0.1c0.1,0,0.2-0.1,0.2-0.1L15,7.3
						c0-0.1,0-0.1-0.1-0.2L8.6,5C8.5,5,8.4,5,8.4,5.1L8.1,5.8C8.1,5.9,8.1,6,8.2,6l0.2,0.1L7.9,7.6C7.7,8.3,7.9,8.5,8.1,8.8l1.3,1.5
						l-0.1,0.4c-0.5,0.1-1.7,0.4-1.9,0.5c-0.2,0.1-0.7,0.2-0.9,0.9l-0.5,1.3l-0.1-0.1c-0.1-0.1-0.2,0-0.3,0.1l-0.3,0.7
						c0,0.1,0.1,0.2,0.1,0.2l6.3,2.1c0.1,0.1,0.2,0,0.3-0.1l0.3-0.8c0-0.1-0.1-0.2-0.1-0.2l-0.2-0.1l0.4-1.3
						c0.3-0.7,0.1-0.9-0.2-1.3l-1.3-1.5l0.1-0.4C11.5,10.8,12.7,10.5,12.9,10.4z M10.2,11.6l1.4,1.7c0.1,0.1,0.2,0.2,0.2,0.3
						c0,0.1,0,0.2-0.1,0.4l-0.5,1.3l-4.7-1.6l0.4-1.3c0.1-0.3,0.4-0.4,0.6-0.5c0.1-0.1,1.3-0.3,2.1-0.5c0.1,0,0.1-0.1,0.2-0.2
						l0.3-0.7c0-0.1,0-0.3-0.1-0.3L8.6,8.4l0,0C8.5,8.3,8.5,8.2,8.5,8.2C8.4,8.1,8.5,8,8.5,7.8L9,6.3L13.7,8l-0.5,1.4
						c-0.1,0.4-0.4,0.5-0.5,0.5c-0.1,0-1.3,0.3-2.1,0.4c-0.1,0.1-0.2,0.1-0.3,0.3l-0.3,0.7C10.1,11.4,10.1,11.5,10.2,11.6z"/>
					<path fill-rule="evenodd" d="M13.9,17.5c-0.1,0.1-0.3,0.1-0.4,0.2c0,0-0.1,0-0.1,0.1h-0.1c-0.6,0.3-1.3,0.5-1.9,0.6l0,0
						c-0.2,0.1-0.3,0.1-0.5,0.1l0,0c-0.3,0.1-0.6,0.1-0.9,0.1c-3.4,0-6.3-2.2-7.4-5.3c0,0,0-0.1,0-0.1c-0.3-0.7-0.4-1.6-0.4-2.5
						S2.4,9,2.7,8.2V8.1c0,0,0-0.1,0.1-0.1c0,0,0,0,0-0.1C3.6,5.5,5.7,3.6,8.2,3l0,0C8.3,3,8.3,3,8.3,3l0,0c0.5-0.1,1.1-0.2,1.7-0.2
						v0.9c0,0.2,0.1,0.3,0.3,0.1l1.7-1.5c0.2-0.1,0.2-0.4,0-0.6l-1.7-1.4C10.2,0.2,10,0.2,10,0.5l0.1,0.8c-2.5,0-4.9,1-6.6,2.7
						C3.3,4.2,3.1,4.4,3,4.6l0,0H2.9c-1.3,1.7-2.1,3.7-2.2,5.8v0.1c0,0.1,0,0.1,0,0.2c0,0.1,0,0.3,0,0.3c0,0.1,0,0.1,0,0.1
						c0.1,1.9,0.7,3.8,1.9,5.3l0,0c0.1,0.1,0.3,0.3,0.4,0.5l0,0c0.1,0.1,0.3,0.3,0.4,0.4c1.4,1.4,3.1,2.3,5.1,2.6v0.1l0,0
						c0.5,0.1,1,0.1,1.5,0.1c1.4,0,2.7-0.3,4-0.9c0,0,0,0,0.1,0l0.1-0.1c0.2-0.1,0.3-0.1,0.5-0.3c0.3-0.2,0.5-0.7,0.3-1
						C14.8,17.4,14.3,17.3,13.9,17.5z"/>
					<path fill-rule="evenodd" d="M16.6,6.2c0.1,0.3,0.4,0.3,0.6,0.3c0.2,0,0.3,0,0.5-0.1c0.3-0.3,0.4-0.7,0.2-1.1
						c-0.1-0.1-0.2-0.3-0.3-0.5c-0.3-0.3-0.7-0.4-1.1-0.1s-0.4,0.7-0.1,1.1C16.4,6,16.6,6.1,16.6,6.2z"/>
					<path fill-rule="evenodd" d="M17.6,8.2c0.1,0.1,0.1,0.3,0.1,0.5c0.1,0.3,0.4,0.6,0.7,0.6c0.1,0,0.1-0.1,0.2-0.1
						c0.4-0.1,0.7-0.5,0.5-0.9c0-0.1-0.1-0.3-0.1-0.5c-0.1-0.4-0.5-0.6-0.9-0.5C17.7,7.4,17.5,7.8,17.6,8.2z"/>
					<path fill-rule="evenodd" d="M17.1,15.7c-0.3-0.3-0.8-0.2-1.1,0.1c-0.1,0.1-0.2,0.3-0.3,0.4c-0.3,0.3-0.3,0.7,0.1,1
						c0.1,0.2,0.3,0.3,0.5,0.3c0.1,0,0.3-0.1,0.5-0.3c0.1-0.1,0.3-0.3,0.3-0.4C17.4,16.5,17.4,16,17.1,15.7z"/>
					<path fill-rule="evenodd" d="M18.8,10.2c-0.5,0-0.8,0.3-0.8,0.7c0,0.1,0,0.3,0,0.5c-0.1,0.4,0.3,0.8,0.7,0.8h0.1
						c0.4,0,0.7-0.3,0.7-0.7c0-0.2,0.1-0.4,0.1-0.6C19.5,10.5,19.2,10.2,18.8,10.2z"/>
					<path fill-rule="evenodd" d="M18.4,13.1c-0.4-0.2-0.9,0-1,0.4c-0.1,0.1-0.1,0.3-0.2,0.5c-0.1,0.3,0,0.8,0.4,1
						c0.1,0,0.2,0.1,0.3,0.1c0.3,0,0.6-0.2,0.7-0.5c0.1-0.2,0.1-0.3,0.2-0.5C19,13.7,18.8,13.3,18.4,13.1z"/>
					<path fill-rule="evenodd" d="M15.8,4.2c0.3-0.3,0.2-0.8-0.1-1.1c-0.1-0.1-0.3-0.2-0.5-0.3c-0.3-0.3-0.8-0.1-1.1,0.2
						c-0.2,0.3-0.1,0.8,0.3,1c0.1,0.1,0.3,0.2,0.3,0.3c0.1,0.1,0.3,0.1,0.5,0.1C15.5,4.5,15.7,4.4,15.8,4.2z"/>
				</g>
			</g>
		</g>
	</g>
</g>
</svg>
