<?xml version="1.0" encoding="utf-8"?>
<!-- Generator: Adobe Illustrator 23.0.0, SVG Export Plug-In . SVG Version: 6.00 Build 0)  -->
<svg version="1.2" baseProfile="tiny" id="Слой_1"
	 xmlns="http://www.w3.org/2000/svg" xmlns:xlink="http://www.w3.org/1999/xlink" x="0px" y="0px" viewBox="0 0 20 20"
	 xml:space="preserve">
<g id="Слой_x0020_1">
	<path fill-rule="evenodd" d="M16.8,12c-0.5-0.5-0.9-0.7-1.5-0.7s-1.1,0.3-1.6,0.7l-1.4,1.4c-0.2-0.1-0.3-0.1-0.4-0.2
		c-0.2-0.1-0.3-0.2-0.5-0.3c-1.3-0.8-2.5-1.9-3.7-3.3C7.4,8.9,7,8.4,6.8,7.7c0.4-0.4,0.7-0.6,1-1C7.9,6.6,8,6.4,8.1,6.4
		c1-0.9,1-2.2,0-3.1L6.9,2.1C6.8,1.9,6.7,1.8,6.5,1.6C6.3,1.3,5.9,1.1,5.7,0.8C5.3,0.3,4.8,0.1,4.2,0.1S3.1,0.3,2.6,0.8l0,0L1.2,2.3
		c-0.5,0.5-0.9,1.3-1,2.1C0.1,5.7,0.5,6.9,0.7,7.7c0.7,1.9,1.8,3.7,3.5,5.7c1.9,2.3,4.3,4.1,6.9,5.5c1,0.5,2.4,1,3.9,1.1
		c0.1,0,0.2,0,0.3,0c1,0,1.9-0.4,2.6-1.1l0,0c0.3-0.3,0.5-0.5,0.8-0.8c0.2-0.2,0.4-0.4,0.5-0.5c0.5-0.5,0.6-1,0.6-1.6
		c0-0.5-0.2-1.1-0.6-1.6L16.8,12z"/>
</g>
</svg>
