<?xml version="1.0" encoding="utf-8"?>
<!-- Generator: Adobe Illustrator 23.0.0, SVG Export Plug-In . SVG Version: 6.00 Build 0)  -->
<svg version="1.2" baseProfile="tiny" id="Слой_1"
	 xmlns="http://www.w3.org/2000/svg" xmlns:xlink="http://www.w3.org/1999/xlink" x="0px" y="0px" viewBox="0 0 20 20"
	 xml:space="preserve">
<g id="Слой_x0020_1">
	<path fill-rule="evenodd" d="M16.9,12c-0.5-0.5-0.9-0.7-1.5-0.7c-0.6,0-1.1,0.3-1.6,0.7l-1.4,1.4c-0.2-0.1-0.3-0.1-0.4-0.2
		c-0.2-0.1-0.3-0.2-0.5-0.3c-1.3-0.8-2.5-1.9-3.7-3.3C7.4,8.9,7,8.3,6.7,7.7c0.4-0.4,0.7-0.6,1-1C7.9,6.6,8,6.4,8.1,6.3
		c1-0.9,1-2.2,0-3.1L6.9,2C6.7,1.8,6.6,1.7,6.4,1.5C6.3,1.2,5.9,1,5.6,0.7C5.3,0.2,4.7,0,4.1,0S3,0.2,2.6,0.7l0,0L1.1,2.3
		c-0.6,0.6-0.9,1.3-1,2.1C0,5.7,0.4,6.9,0.6,7.7c0.7,1.9,1.8,3.8,3.5,5.7c1.9,2.3,4.3,4.1,7,5.5c1,0.5,2.4,1,4,1.1
		c0.1,0,0.2,0,0.3,0c1,0,1.9-0.4,2.6-1.1l0,0c0.3-0.3,0.6-0.6,0.8-0.8c0.2-0.2,0.4-0.4,0.6-0.6c0.5-0.5,0.6-1,0.6-1.6
		c0-0.6-0.2-1.1-0.6-1.6L16.9,12z M18.5,16.7L18.5,16.7c-0.2,0.2-0.4,0.4-0.6,0.6c-0.3,0.3-0.6,0.6-0.9,0.9
		c-0.5,0.5-0.9,0.6-1.7,0.6c-0.1,0-0.2,0-0.2,0c-1.4-0.1-2.6-0.6-3.5-1c-2.6-1.2-4.8-2.9-6.6-5.2c-1.6-1.8-2.6-3.6-3.2-5.4
		C1.4,6.1,1.3,5.3,1.3,4.5c0.1-0.6,0.3-1,0.6-1.4l1.6-1.5C3.7,1.3,4,1.2,4.1,1.2c0.3,0,0.6,0.2,0.6,0.4l0,0c0.3,0.2,0.6,0.5,0.8,0.7
		c0.2,0.2,0.3,0.4,0.5,0.5L7.3,4c0.5,0.6,0.5,0.9,0,1.5C7.2,5.6,7,5.7,6.9,5.9C6.5,6.2,6.2,6.6,5.8,7H5.7C5.3,7.3,5.4,7.7,5.5,8l0,0
		C5.8,8.8,6.3,9.5,7,10.4l0,0c1.2,1.6,2.5,2.8,4,3.6c0.2,0.2,0.4,0.3,0.6,0.4s0.3,0.1,0.5,0.2v0.1c0.2,0,0.4,0.1,0.5,0.1
		c0.4,0,0.6-0.3,0.7-0.4l1.5-1.5c0.2-0.2,0.5-0.4,0.7-0.4s0.5,0.2,0.6,0.4l0,0l2.5,2.5C19,15.8,19,16.3,18.5,16.7z"/>
</g>
</svg>
