
<svg version="1.2" baseProfile="tiny" id="Слой_1"
	 xmlns="http://www.w3.org/2000/svg" xmlns:xlink="http://www.w3.org/1999/xlink" x="0px" y="0px" viewBox="0 0 20 20"
	 xml:space="preserve">
<g id="Слой_x0020_1">
	<g id="_1726703124064">
		<circle fill-rule="evenodd" cx="10" cy="10" r="10"/>
		<g>
			<path fill-rule="evenodd" fill="#FEFEFE" d="M8.2,10.3l0.1,2c0,0,0.8,0.2,1.7,0.2l0-0.1c-0.8-0.2-1.6-0.7-1.7-2.2L8.2,10.3z"/>
			<path fill-rule="evenodd" fill="#FEFEFE" d="M12.7,8.5c-0.6-0.5-1.2-0.9-1.9-1.3c-0.6-0.3-1.2-0.7-1.4-1.4
				C9,4.7,9.7,4.3,10.1,4.1V4C9.9,4,9.8,4.1,9.6,4.2C8.9,4.4,8.3,5,8.3,5.8c0,0.9,0.6,1.8,1.4,2.3c0.9,0.5,2,1,2.5,1.9
				c0.8,1.3-0.3,2.2-0.7,2.5v0.1c0.5-0.1,0.9-0.2,1.3-0.4C13.7,11.5,13.9,9.7,12.7,8.5z"/>
			<path fill-rule="evenodd" fill="#FEFEFE" d="M12.9,6.3l-0.1-2c0,0-0.8-0.3-1.8-0.3v0.1c0.8,0.2,1.5,1,1.7,2.3L12.9,6.3z"/>
			<path fill-rule="evenodd" fill="#FEFEFE" d="M8.6,15V7.8H6.5v0.2c0.3,0,1,0,1,0.8V15c0,0.8-0.7,0.8-1,0.8V16h3.3v-0.2
				C9.4,15.9,8.6,15.9,8.6,15z"/>
		</g>
		<circle fill-rule="evenodd" fill="#FF0009" cx="13" cy="15.5" r="0.5"/>
	</g>
</g>
</svg>
