<?xml version="1.0" encoding="utf-8"?>
<!-- Generator: Adobe Illustrator 23.0.0, SVG Export Plug-In . SVG Version: 6.00 Build 0)  -->
<svg version="1.2" baseProfile="tiny" id="Слой_1"
	 xmlns="http://www.w3.org/2000/svg" xmlns:xlink="http://www.w3.org/1999/xlink" x="0px" y="0px" viewBox="0 0 25 25"
	 xml:space="preserve">
	<path fill-rule="evenodd" d="M17.7,15.6h-1.2l-0.4-0.4c1.5-1.5,2.3-3.7,2.3-5.9c0-5.1-4.1-9.2-9.2-9.2C4.1,0,0,4.1,0,9.2
		c0,5.1,4.1,9.2,9.2,9.2c2.3,0,4.4-0.8,5.9-2.3l0.4,0.4v1.2l6.7,6.7c0.3,0.4,0.7,0.5,1.2,0.5c0.8,0,1.5-0.7,1.5-1.5
		c0-0.5-0.1-0.9-0.5-1.2L17.7,15.6z M9.2,15.6c-3.6,0-6.4-2.9-6.4-6.4c0-3.6,2.8-6.4,6.4-6.4c3.5,0,6.4,2.8,6.4,6.4
		C15.6,12.8,12.8,15.6,9.2,15.6z"/>
</svg>
