<?xml version="1.0" encoding="utf-8"?>
<!-- Generator: Adobe Illustrator 23.0.0, SVG Export Plug-In . SVG Version: 6.00 Build 0)  -->
<svg version="1.2" baseProfile="tiny" id="Слой_1"
	 xmlns="http://www.w3.org/2000/svg" xmlns:xlink="http://www.w3.org/1999/xlink" x="0px" y="0px" viewBox="0 0 20 20"
	 xml:space="preserve">
<g id="Слой_x0020_1">
	<path fill-rule="evenodd" fill="#2B2A29" d="M14.6,20c3,0,5.4-2.4,5.4-5.4c0-1.1-0.3-2.1-0.9-3c0.1-0.5,0.1-1,0.1-1.5
		c0-5.2-4.2-9.3-9.3-9.3c-0.5,0-1,0-1.5,0.1C7.5,0.3,6.5,0,5.4,0C2.4,0,0,2.4,0,5.4c0,1,0.3,2,0.8,2.8c-0.1,0.6-0.2,1.3-0.2,2
		c0,5.2,4.2,9.3,9.3,9.3c0.7,0,1.3-0.1,2-0.2C12.7,19.7,13.6,20,14.6,20z M14.8,12.3c0,1.5-0.7,2.5-2.1,3.2
		c-1.3,0.6-3.2,0.6-4.6,0.3c-1.9-0.5-2.8-1.5-2.9-2.4C5,12,6.5,11.5,7.3,12.4c0.2,0.2,0.3,0.4,0.5,0.7c1.1,1.2,3.3,1.1,4.1,0.1
		c0.3-0.4,0.3-0.9,0-1.3c-0.3-0.4-0.7-0.4-3.9-1.2C4.8,9.8,4.9,7.1,5.8,5.7C6.5,4.6,8,4.2,9.3,4.1c2.3-0.2,4.8,0.9,5,2.4
		c0.1,0.6-0.2,1.1-0.8,1.2c-0.9,0.2-1.2-0.4-1.6-0.9c-1-1-2.9-0.9-3.6-0.4C7.7,6.9,7.6,7.6,8.2,8c0.8,0.6,3.4,0.8,4.7,1.4
		C14.2,10,14.8,11.1,14.8,12.3z"/>
</g>
</svg>
