<?xml version="1.0" encoding="utf-8"?>
<!-- Generator: Adobe Illustrator 23.0.0, SVG Export Plug-In . SVG Version: 6.00 Build 0)  -->
<svg version="1.2" baseProfile="tiny" id="Слой_1"
	 xmlns="http://www.w3.org/2000/svg" xmlns:xlink="http://www.w3.org/1999/xlink" x="0px" y="0px" viewBox="0 0 20 20"
	 xml:space="preserve">
<g id="Слой_x0020_1">
	<g>
		<path fill-rule="evenodd" fill="#2B2A29" d="M19.1,4.8L19.1,4.8c-0.5-1.9-2.5-3.9-4.5-4.3v0c-3.1-0.6-6.2-0.6-9.3,0v0
			c-1.9,0.4-4,2.4-4.5,4.3v0c-0.6,2.6-0.6,5.3,0,7.9l0,0c0.4,1.8,2.4,3.7,4.2,4.2V19c0,0.7,0.9,1.1,1.4,0.6l2.1-2.2
			c0.5,0,0.9,0,1.4,0c1.6,0,3.1-0.2,4.7-0.5h0c1.9-0.4,4-2.4,4.5-4.3l0,0C19.6,10,19.6,7.4,19.1,4.8z M11.8,8.3
			c-0.2,0-0.3-0.1-0.3-0.3c0-0.1,0-0.3,0-0.4c0-0.2-0.2-0.5-0.4-0.6C11,7,10.9,6.9,10.7,6.9c-0.1,0-0.3,0-0.4-0.1
			c-0.1,0-0.2-0.1-0.2-0.3s0.2-0.2,0.3-0.2c0.9,0.1,1.5,0.5,1.6,1.6c0,0.1,0,0.1,0,0.2C12,8.2,11.9,8.3,11.8,8.3L11.8,8.3z
			 M11.8,8.3L11.8,8.3L11.8,8.3z M11.8,8.3L11.8,8.3L11.8,8.3z M11.8,8.3C11.8,8.3,11.7,8.3,11.8,8.3L11.8,8.3z M13.3,8.4
			c0,0,0,0.1,0,0.1c0,0.2-0.4,0.3-0.5,0c0-0.1,0-0.1,0-0.2c0-0.5-0.1-1-0.3-1.4c-0.3-0.4-0.7-0.8-1.1-1c-0.3-0.1-0.6-0.2-0.9-0.3
			c-0.1,0-0.3,0-0.4,0c-0.1,0-0.2-0.1-0.2-0.3C9.8,5.1,9.9,5,10,5c0.5,0,1,0.1,1.5,0.4c1,0.5,1.5,1.3,1.7,2.4c0,0,0,0.1,0,0.1
			C13.2,8.1,13.3,8.2,13.3,8.4L13.3,8.4z M9.7,3.8L9.7,3.8c2.3,0,4.2,1.6,4.6,3.9c0.1,0.4,0.1,0.8,0.1,1.2c0,0.2-0.1,0.3-0.3,0.3
			C14.1,9.2,14,9,14,8.9c0-0.3,0-0.7-0.1-1c-0.2-1.7-1.6-3.1-3.3-3.5c-0.3,0-0.5-0.1-0.8-0.1c-0.1,0-0.4,0-0.4-0.2
			c0-0.2,0.1-0.3,0.3-0.3C9.7,3.8,9.7,3.8,9.7,3.8L9.7,3.8L9.7,3.8L9.7,3.8z M10.7,3.8L10.7,3.8L10.7,3.8z M10.7,3.8L10.7,3.8
			L10.7,3.8z M10.7,3.8L10.7,3.8L10.7,3.8z M10.7,3.8L10.7,3.8L10.7,3.8z M10.7,3.8L10.7,3.8L10.7,3.8L10.7,3.8L10.7,3.8z M10.7,3.8
			L10.7,3.8L10.7,3.8z M9.8,3.8L9.8,3.8L9.8,3.8z M12.5,13.8c-0.2-0.1-0.4-0.1-0.5-0.2c-1.8-0.7-3.4-1.7-4.7-3.1
			C6.5,9.7,5.9,8.8,5.4,7.8C5.2,7.3,5,6.8,4.8,6.4C4.6,5.9,4.9,5.5,5.2,5.1c0.3-0.3,0.6-0.6,1-0.7c0.3-0.1,0.6-0.1,0.8,0.2
			c0.5,0.5,0.9,1.1,1.2,1.7c0.2,0.4,0.1,0.8-0.2,1.1c-0.1,0-0.2,0.1-0.3,0.2C7.6,7.6,7.5,7.7,7.4,7.8c-0.1,0.1-0.1,0.3,0,0.5
			c0.5,1.3,1.3,2.3,2.5,2.8c0.2,0.1,0.4,0.2,0.6,0.1c0.4,0,0.5-0.5,0.8-0.7c0.3-0.2,0.6-0.2,0.9,0c0.3,0.2,0.6,0.4,0.8,0.6
			c0.3,0.2,0.6,0.4,0.8,0.6c0.2,0.2,0.3,0.5,0.2,0.8c-0.2,0.5-0.6,1-1.1,1.3C12.8,13.8,12.6,13.8,12.5,13.8L12.5,13.8z"/>
	</g>
</g>
</svg>
