<?xml version="1.0" encoding="utf-8"?>
<!-- Generator: Adobe Illustrator 23.0.0, SVG Export Plug-In . SVG Version: 6.00 Build 0)  -->
<svg version="1.2" baseProfile="tiny" id="Слой_1"
	 xmlns="http://www.w3.org/2000/svg" xmlns:xlink="http://www.w3.org/1999/xlink" x="0px" y="0px" viewBox="0 0 20 20"
	 xml:space="preserve">
<g id="Слой_x0020_1">
	<path fill-rule="evenodd" fill="#2B2A29" d="M0,20.1c0.1-0.4,0.2-0.8,0.3-1.2c0.3-1.2,0.7-2.4,1-3.6c0-0.2,0-0.4,0-0.6
		C-1.8,8.8,1.3,1.7,7.8,0.2c5.8-1.4,11.1,2.6,12.1,7.9c1,5.5-2.6,10.7-8.1,11.7c-2.2,0.4-4.2,0.1-6.2-0.9c-0.2-0.1-0.4-0.1-0.6-0.1
		C2.3,19.5,0.5,20,0,20.1z M12.6,14.7c-1.9-0.1-5-1.6-7.2-5.3C4.7,8.1,4.8,6.6,5.9,5.6c0.4-0.4,0.8-0.3,1.3-0.2
		c0.1,0,0.2,0.2,0.3,0.3C7.7,6.3,8,7,8.3,7.6C8.4,8,8.2,8.3,7.7,8.9C7.5,9.1,7.5,9.2,7.6,9.4c0.8,1.4,2,2.4,3.5,3
		c0.2,0.1,0.4,0,0.5-0.2c0.8-1,0.9-1.2,1.3-1.1c2,1,2.2,1,2.2,1.2C15.1,14.2,13.6,14.8,12.6,14.7z"/>
</g>
</svg>
